<?xml version="1.0" encoding="utf-8"?>
<!-- Generator: Adobe Illustrator 23.0.1, SVG Export Plug-In . SVG Version: 6.00 Build 0)  -->
<svg version="1.1" id="Layer_1" xmlns="http://www.w3.org/2000/svg" xmlns:xlink="http://www.w3.org/1999/xlink" x="0px" y="0px"
	 viewBox="0 0 741.63 420.94" style="enable-background:new 0 0 741.63 420.94;" xml:space="preserve">
<style type="text/css">
	.st0{fill:#FFFFFF;}
	.st1{fill:#CCCCCC;}
	.st2{fill:none;stroke:#CCCCCC;stroke-miterlimit:10;}
	.st3{fill:#3192E8;stroke:#000000;stroke-width:0.25;stroke-miterlimit:10;}
	.st4{font-family:'Consolas';}
	.st5{font-size:18px;}
	.st6{fill:none;}
	.st7{font-family:'ArialMT';}
	.st8{font-size:12px;}
	.st9{fill:none;stroke:#000000;stroke-miterlimit:10;}
</style>
<g id="collection_x5F_table">
</g>
<g id="background_x5F_collection">
</g>
<g id="collections">
</g>
<g id="collection_x5F_fields">
</g>
<g id="key_x5F_svg_x5F_collection">
</g>
<g>
	<g>
		<rect x="276" y="30.63" class="st0" width="215" height="192"/>
		<path class="st1" d="M490.5,31.13v191h-214v-191L490.5,31.13 M491.5,30.13h-216v193h216V30.13L491.5,30.13z"/>
	</g>
	<line class="st2" x1="303" y1="70.63" x2="303" y2="222.63"/>
	<line class="st2" x1="277" y1="92.63" x2="491" y2="92.63"/>
	<line class="st2" x1="277" y1="114.63" x2="491" y2="114.63"/>
	<line class="st2" x1="277" y1="136.63" x2="491" y2="136.63"/>
	<line class="st2" x1="277" y1="157.63" x2="491" y2="157.63"/>
	<line class="st2" x1="277" y1="178.63" x2="491" y2="178.63"/>
	<line class="st2" x1="277" y1="200.63" x2="491" y2="200.63"/>
	<rect x="275.5" y="30.13" class="st3" width="216" height="41"/>
	<g>
		<path class="st0" d="M322.34,59.46c-0.68,0.27-1.34,0.48-1.97,0.61s-1.3,0.2-1.99,0.2c-1.1,0-2.08-0.16-2.92-0.49
			s-1.56-0.81-2.14-1.45s-1.02-1.44-1.32-2.38s-0.45-2.05-0.45-3.31c0-1.29,0.16-2.44,0.49-3.44s0.8-1.85,1.41-2.54
			s1.35-1.22,2.22-1.58s1.85-0.54,2.94-0.54c0.35,0,0.68,0.01,0.99,0.02s0.61,0.04,0.91,0.09s0.6,0.1,0.9,0.17s0.62,0.16,0.95,0.27
			v2.86c-0.66-0.31-1.3-0.54-1.9-0.67s-1.15-0.2-1.64-0.2c-0.73,0-1.35,0.13-1.86,0.39s-0.94,0.63-1.27,1.1s-0.58,1.04-0.73,1.69
			s-0.23,1.37-0.23,2.15c0,0.83,0.08,1.57,0.24,2.22s0.41,1.21,0.74,1.66s0.77,0.8,1.29,1.04s1.14,0.36,1.86,0.36
			c0.26,0,0.54-0.03,0.84-0.08s0.61-0.12,0.91-0.2s0.61-0.18,0.91-0.29s0.58-0.23,0.84-0.35v2.69H322.34z"/>
		<path class="st0" d="M336.53,52.33c0,1.39-0.16,2.59-0.49,3.6s-0.77,1.84-1.34,2.48s-1.23,1.13-1.99,1.44s-1.58,0.47-2.44,0.47
			c-2.02,0-3.53-0.67-4.55-2.01s-1.52-3.29-1.52-5.84c0-1.39,0.16-2.59,0.49-3.6s0.77-1.84,1.34-2.48s1.23-1.13,1.99-1.44
			s1.58-0.47,2.44-0.47c2.02,0,3.53,0.67,4.55,2S336.53,49.77,336.53,52.33z M333.48,52.47c0-1.81-0.24-3.16-0.73-4.05
			s-1.28-1.34-2.39-1.34c-0.55,0-1.03,0.12-1.42,0.35s-0.71,0.57-0.97,1.01s-0.44,0.99-0.56,1.65s-0.18,1.4-0.18,2.24
			c0,1.81,0.24,3.16,0.73,4.05s1.28,1.34,2.38,1.34c0.55,0,1.03-0.12,1.42-0.35s0.72-0.57,0.97-1.01s0.43-0.99,0.55-1.65
			S333.48,53.32,333.48,52.47z"/>
		<path class="st0" d="M339.27,60.05V44.74h2.93v12.84h6.47v2.47C348.67,60.05,339.27,60.05,339.27,60.05z"/>
		<path class="st0" d="M352.46,60.05V44.74h2.93v12.84h6.47v2.47C361.86,60.05,352.46,60.05,352.46,60.05z"/>
		<path class="st0" d="M365.51,60.05V44.74h9.22v2.44h-6.29v3.81h6v2.38h-6v4.25h6.29v2.44h-9.22V60.05z"/>
		<path class="st0" d="M388.31,59.46c-0.68,0.27-1.34,0.48-1.97,0.61s-1.3,0.2-1.99,0.2c-1.1,0-2.08-0.16-2.92-0.49
			s-1.56-0.81-2.14-1.45s-1.02-1.44-1.32-2.38s-0.45-2.05-0.45-3.31c0-1.29,0.16-2.44,0.49-3.44s0.8-1.85,1.41-2.54
			s1.35-1.22,2.22-1.58s1.85-0.54,2.94-0.54c0.35,0,0.68,0.01,0.99,0.02s0.61,0.04,0.91,0.09s0.6,0.1,0.9,0.17s0.62,0.16,0.95,0.27
			v2.86c-0.66-0.31-1.3-0.54-1.9-0.67s-1.15-0.2-1.64-0.2c-0.73,0-1.35,0.13-1.86,0.39s-0.94,0.63-1.27,1.1s-0.58,1.04-0.73,1.69
			s-0.23,1.37-0.23,2.15c0,0.83,0.08,1.57,0.24,2.22s0.41,1.21,0.74,1.66s0.77,0.8,1.29,1.04s1.14,0.36,1.86,0.36
			c0.26,0,0.54-0.03,0.84-0.08s0.61-0.12,0.91-0.2s0.61-0.18,0.91-0.29s0.58-0.23,0.84-0.35v2.69H388.31z"/>
		<path class="st0" d="M397.82,47.14v12.91h-2.95V47.14h-4.2v-2.4h11.34v2.4H397.82z"/>
		<path class="st0" d="M404.7,47.09v-2.36h9.68v2.36H411v10.58h3.38v2.38h-9.68v-2.38h3.38V47.09H404.7z"/>
		<path class="st0" d="M428.89,52.33c0,1.39-0.16,2.59-0.49,3.6s-0.77,1.84-1.34,2.48s-1.23,1.13-1.99,1.44s-1.58,0.47-2.44,0.47
			c-2.02,0-3.53-0.67-4.55-2.01s-1.52-3.29-1.52-5.84c0-1.39,0.16-2.59,0.49-3.6s0.77-1.84,1.34-2.48s1.23-1.13,1.99-1.44
			s1.58-0.47,2.44-0.47c2.02,0,3.53,0.67,4.55,2S428.89,49.77,428.89,52.33z M425.85,52.47c0-1.81-0.24-3.16-0.73-4.05
			s-1.28-1.34-2.39-1.34c-0.55,0-1.03,0.12-1.42,0.35s-0.71,0.57-0.97,1.01s-0.44,0.99-0.56,1.65s-0.18,1.4-0.18,2.24
			c0,1.81,0.24,3.16,0.73,4.05s1.28,1.34,2.38,1.34c0.55,0,1.03-0.12,1.42-0.35s0.72-0.57,0.97-1.01s0.43-0.99,0.55-1.65
			S425.85,53.32,425.85,52.47z"/>
		<path class="st0" d="M438,60.05l-4.1-9.14l-0.84-1.97v6.35v4.76h-2.63V44.74h3.54l4.18,9.2l0.74,1.79v-6.76v-4.23h2.63v15.32H438
			V60.05z"/>
		<path class="st0" d="M454.48,55.43c0,0.84-0.15,1.56-0.46,2.18s-0.74,1.13-1.29,1.53s-1.21,0.7-1.98,0.9s-1.6,0.29-2.51,0.29
			c-0.8,0-1.58-0.05-2.33-0.14s-1.49-0.25-2.23-0.47v-2.85c0.36,0.13,0.73,0.24,1.13,0.35s0.78,0.21,1.18,0.29s0.79,0.15,1.18,0.19
			s0.77,0.07,1.14,0.07c0.55,0,1.01-0.05,1.39-0.14s0.7-0.22,0.94-0.39s0.42-0.36,0.53-0.59s0.16-0.48,0.16-0.75
			c0-0.38-0.11-0.69-0.32-0.94s-0.5-0.48-0.85-0.67s-0.75-0.37-1.2-0.53s-0.91-0.32-1.37-0.5s-0.92-0.38-1.37-0.61
			s-0.85-0.51-1.2-0.84s-0.63-0.74-0.85-1.2s-0.32-1.03-0.32-1.68c0-0.6,0.11-1.17,0.33-1.71s0.56-1.01,1.03-1.41
			s1.07-0.72,1.8-0.96s1.62-0.36,2.66-0.36c0.3,0,0.62,0.01,0.96,0.04s0.66,0.06,0.98,0.11s0.64,0.09,0.94,0.15s0.58,0.12,0.83,0.18
			v2.64c-0.25-0.09-0.52-0.18-0.82-0.26s-0.6-0.15-0.92-0.21s-0.63-0.1-0.96-0.13s-0.63-0.05-0.91-0.05c-0.51,0-0.94,0.04-1.29,0.12
			s-0.64,0.2-0.87,0.34s-0.39,0.32-0.49,0.53s-0.15,0.45-0.15,0.7c0,0.32,0.11,0.6,0.32,0.83s0.5,0.44,0.86,0.62
			s0.76,0.36,1.21,0.52s0.91,0.33,1.38,0.52s0.93,0.39,1.38,0.63s0.85,0.52,1.21,0.86s0.64,0.73,0.86,1.19S454.48,54.8,454.48,55.43
			z"/>
	</g>
	<text transform="matrix(1 0 0 1 317.1416 86.9014)" class="st4 st5">id</text>
	<text transform="matrix(1 0 0 1 317.1416 108.5014)" class="st4 st5">name</text>
	<text transform="matrix(1 0 0 1 317.1416 130.1014)" class="st4 st5">description</text>
	<text transform="matrix(1 0 0 1 317.1416 151.7014)" class="st4 st5">user_id</text>
	<text transform="matrix(1 0 0 1 317.1416 173.3014)" class="st4 st5">father_id</text>
	<text transform="matrix(1 0 0 1 317.1416 194.9014)" class="st4 st5">created_date</text>
	<text transform="matrix(1 0 0 1 317.1416 216.5014)" class="st4 st5">updated_date</text>
	<g>
		<rect x="25" y="30.63" class="st0" width="169" height="106"/>
		<path class="st1" d="M193.5,31.13v105h-168v-105L193.5,31.13 M194.5,30.13h-170v107h170V30.13L194.5,30.13z"/>
	</g>
	<line class="st2" x1="26" y1="92.63" x2="193" y2="92.63"/>
	<line class="st2" x1="26" y1="114.63" x2="194" y2="114.63"/>
	<path id="SVGID_x5F_1_x5F_" class="st6" d="M26,136.63h214"/>
	<text transform="matrix(1 0 0 1 118.3712 136.63)" class="st7 st8"> </text>
	<text transform="matrix(1 0 0 1 121.7051 136.63)" class="st7 st8"> </text>
	<text transform="matrix(1 0 0 1 125.0391 136.63)" class="st7 st8"> </text>
	<text class="st7 st8"> </text>
	<rect x="24.5" y="30.13" class="st3" width="170" height="41"/>
	<g>
		<path class="st0" d="M90.75,54.42c0,0.98-0.13,1.83-0.39,2.57s-0.64,1.35-1.13,1.85s-1.08,0.86-1.79,1.11s-1.49,0.38-2.37,0.38
			c-0.98,0-1.83-0.13-2.53-0.38s-1.27-0.61-1.71-1.08s-0.75-1.04-0.95-1.71s-0.29-1.43-0.29-2.26V44.74h2.88v9.98
			c0,0.52,0.04,0.97,0.13,1.37s0.25,0.74,0.47,1.01s0.5,0.49,0.84,0.63s0.76,0.21,1.27,0.21c0.48,0,0.88-0.06,1.21-0.18
			s0.6-0.32,0.82-0.59s0.38-0.62,0.49-1.04s0.16-0.93,0.16-1.54v-9.87h2.88v9.7H90.75z"/>
		<path class="st0" d="M103.72,55.43c0,0.84-0.15,1.56-0.46,2.18s-0.74,1.13-1.29,1.53s-1.21,0.7-1.98,0.9s-1.6,0.29-2.51,0.29
			c-0.8,0-1.58-0.05-2.33-0.14s-1.49-0.25-2.23-0.47v-2.85c0.36,0.13,0.73,0.24,1.13,0.35s0.78,0.21,1.18,0.29s0.79,0.15,1.18,0.19
			s0.77,0.07,1.14,0.07c0.55,0,1.01-0.05,1.39-0.14s0.7-0.22,0.94-0.39s0.42-0.36,0.53-0.59s0.16-0.48,0.16-0.75
			c0-0.38-0.11-0.69-0.32-0.94s-0.5-0.48-0.85-0.67s-0.75-0.37-1.2-0.53s-0.91-0.32-1.37-0.5s-0.92-0.38-1.37-0.61
			s-0.85-0.51-1.2-0.84s-0.63-0.74-0.85-1.2s-0.32-1.03-0.32-1.68c0-0.6,0.11-1.17,0.33-1.71s0.56-1.01,1.03-1.41
			s1.07-0.72,1.8-0.96s1.62-0.36,2.66-0.36c0.3,0,0.62,0.01,0.96,0.04s0.66,0.06,0.98,0.11s0.64,0.09,0.94,0.15s0.58,0.12,0.83,0.18
			v2.64c-0.25-0.09-0.52-0.18-0.82-0.26s-0.6-0.15-0.92-0.21s-0.63-0.1-0.96-0.13s-0.63-0.05-0.91-0.05c-0.51,0-0.94,0.04-1.29,0.12
			s-0.64,0.2-0.87,0.34s-0.39,0.32-0.49,0.53s-0.15,0.45-0.15,0.7c0,0.32,0.11,0.6,0.32,0.83s0.5,0.44,0.86,0.62
			s0.76,0.36,1.21,0.52s0.91,0.33,1.38,0.52s0.93,0.39,1.38,0.63s0.85,0.52,1.21,0.86s0.64,0.73,0.86,1.19S103.72,54.8,103.72,55.43
			z"/>
		<path class="st0" d="M107.12,60.05V44.74h9.22v2.44h-6.29v3.81h6v2.38h-6v4.25h6.29v2.44h-9.22V60.05z"/>
		<path class="st0" d="M127.39,60.05l-2.16-4.92c-0.2-0.47-0.49-0.82-0.85-1.06s-0.79-0.36-1.28-0.36h-0.55v6.34h-2.88V44.74h4.46
			c0.84,0,1.61,0.07,2.3,0.22s1.27,0.38,1.76,0.72s0.86,0.77,1.12,1.31s0.39,1.2,0.39,1.98c0,0.56-0.08,1.06-0.25,1.5
			s-0.39,0.81-0.69,1.13s-0.65,0.57-1.06,0.77s-0.86,0.33-1.34,0.41c0.38,0.08,0.72,0.29,1.03,0.64s0.63,0.85,0.94,1.51l2.45,5.13
			h-3.39V60.05z M126.68,49.25c0-0.75-0.24-1.29-0.71-1.62s-1.19-0.49-2.14-0.49h-1.27v4.32h1.17c0.45,0,0.85-0.05,1.21-0.14
			s0.67-0.23,0.93-0.42s0.46-0.42,0.6-0.7S126.68,49.61,126.68,49.25z"/>
		<path class="st0" d="M143.3,55.43c0,0.84-0.15,1.56-0.46,2.18s-0.74,1.13-1.29,1.53s-1.21,0.7-1.98,0.9s-1.6,0.29-2.51,0.29
			c-0.8,0-1.58-0.05-2.33-0.14s-1.49-0.25-2.23-0.47v-2.85c0.36,0.13,0.73,0.24,1.13,0.35s0.78,0.21,1.18,0.29s0.79,0.15,1.18,0.19
			s0.77,0.07,1.14,0.07c0.55,0,1.01-0.05,1.39-0.14s0.7-0.22,0.94-0.39s0.42-0.36,0.53-0.59s0.16-0.48,0.16-0.75
			c0-0.38-0.11-0.69-0.32-0.94s-0.5-0.48-0.85-0.67s-0.75-0.37-1.2-0.53s-0.91-0.32-1.37-0.5s-0.92-0.38-1.37-0.61
			s-0.85-0.51-1.2-0.84s-0.63-0.74-0.85-1.2s-0.32-1.03-0.32-1.68c0-0.6,0.11-1.17,0.33-1.71s0.56-1.01,1.03-1.41
			s1.07-0.72,1.8-0.96s1.62-0.36,2.66-0.36c0.3,0,0.62,0.01,0.96,0.04s0.66,0.06,0.98,0.11s0.64,0.09,0.94,0.15s0.58,0.12,0.83,0.18
			v2.64c-0.25-0.09-0.52-0.18-0.82-0.26s-0.6-0.15-0.92-0.21s-0.63-0.1-0.96-0.13s-0.63-0.05-0.91-0.05c-0.51,0-0.94,0.04-1.29,0.12
			s-0.64,0.2-0.87,0.34s-0.39,0.32-0.49,0.53s-0.15,0.45-0.15,0.7c0,0.32,0.11,0.6,0.32,0.83s0.5,0.44,0.86,0.62
			s0.76,0.36,1.21,0.52s0.91,0.33,1.38,0.52s0.93,0.39,1.38,0.63s0.85,0.52,1.21,0.86s0.64,0.73,0.86,1.19S143.3,54.8,143.3,55.43z"
			/>
	</g>
	<text transform="matrix(1 0 0 1 71.1416 86.9014)" class="st4 st5">id</text>
	<text transform="matrix(1 0 0 1 71.1416 108.5014)" class="st4 st5">user_name</text>
	<text transform="matrix(1 0 0 1 71.1416 130.1014)" class="st4 st5">password</text>
	<line class="st2" x1="47" y1="71.63" x2="47" y2="136.63"/>
	<g>
		<path d="M292.5,77.15c0-2.22-1.8-4.02-4.02-4.02s-4.02,1.8-4.02,4.02c0,1.59,0.93,2.96,2.27,3.62v0.94h0.72v8.04h0.7V81.7h0.4
			v8.04h1.21V81.7h0.47v-0.94C291.57,80.11,292.5,78.74,292.5,77.15z M288.48,74.18c0.6,0,1.09,0.49,1.09,1.09s-0.49,1.09-1.09,1.09
			s-1.09-0.49-1.09-1.09S287.88,74.18,288.48,74.18z"/>
	</g>
	<g>
		<path d="M39.5,77.15c0-2.22-1.8-4.02-4.02-4.02s-4.02,1.8-4.02,4.02c0,1.59,0.93,2.96,2.27,3.62v0.94h0.72v8.04h0.7V81.7h0.4v8.04
			h1.21V81.7h0.47v-0.94C38.57,80.11,39.5,78.74,39.5,77.15z M35.48,74.18c0.6,0,1.09,0.49,1.09,1.09s-0.49,1.09-1.09,1.09
			s-1.09-0.49-1.09-1.09S34.88,74.18,35.48,74.18z"/>
	</g>
	<g>
		<rect x="555" y="30.63" class="st0" width="187" height="192"/>
		<path class="st1" d="M741.5,31.13v191h-186v-191L741.5,31.13 M742.5,30.13h-188v193h188V30.13L742.5,30.13z"/>
	</g>
	<line class="st2" x1="582" y1="70.63" x2="582" y2="222.63"/>
	<line class="st2" x1="556" y1="92.63" x2="742.5" y2="92.63"/>
	<line class="st2" x1="556" y1="114.63" x2="742.5" y2="114.63"/>
	<line class="st2" x1="556" y1="136.63" x2="742.5" y2="136.63"/>
	<line class="st2" x1="556" y1="157.63" x2="742.5" y2="157.63"/>
	<line class="st2" x1="556" y1="178.63" x2="742.5" y2="178.63"/>
	<line class="st2" x1="556" y1="200.63" x2="742.5" y2="200.63"/>
	<rect x="554.5" y="30.13" class="st3" width="188" height="41"/>
	<g>
		<path class="st0" d="M631.64,47.14v12.91h-2.95V47.14h-4.2v-2.4h11.34v2.4H631.64z"/>
		<path class="st0" d="M649.53,52.33c0,1.39-0.16,2.59-0.49,3.6s-0.77,1.84-1.34,2.48s-1.23,1.13-1.99,1.44s-1.58,0.47-2.44,0.47
			c-2.02,0-3.53-0.67-4.55-2.01s-1.52-3.29-1.52-5.84c0-1.39,0.16-2.59,0.49-3.6s0.77-1.84,1.34-2.48s1.23-1.13,1.99-1.44
			s1.58-0.47,2.44-0.47c2.02,0,3.53,0.67,4.55,2S649.53,49.77,649.53,52.33z M646.48,52.47c0-1.81-0.24-3.16-0.73-4.05
			s-1.28-1.34-2.39-1.34c-0.55,0-1.03,0.12-1.42,0.35s-0.71,0.57-0.97,1.01s-0.44,0.99-0.56,1.65s-0.18,1.4-0.18,2.24
			c0,1.81,0.24,3.16,0.73,4.05s1.28,1.34,2.38,1.34c0.55,0,1.03-0.12,1.42-0.35s0.72-0.57,0.97-1.01s0.43-0.99,0.55-1.65
			S646.48,53.32,646.48,52.47z"/>
		<path class="st0" d="M662.54,52.2c0,1.19-0.15,2.27-0.44,3.23s-0.75,1.79-1.37,2.48s-1.42,1.21-2.38,1.58s-2.13,0.56-3.48,0.56
			h-3.89V44.74h4.54c1.17,0,2.2,0.15,3.08,0.44s1.61,0.74,2.2,1.35s1.03,1.38,1.32,2.32S662.54,50.91,662.54,52.2z M659.44,52.39
			c0-0.83-0.07-1.57-0.2-2.21s-0.36-1.2-0.67-1.65s-0.74-0.79-1.27-1.03s-1.19-0.35-1.98-0.35h-1.46v10.49h1.27
			c1.41,0,2.49-0.42,3.22-1.27S659.44,54.2,659.44,52.39z"/>
		<path class="st0" d="M675.92,52.33c0,1.39-0.16,2.59-0.49,3.6s-0.77,1.84-1.34,2.48s-1.23,1.13-1.99,1.44s-1.58,0.47-2.44,0.47
			c-2.02,0-3.53-0.67-4.55-2.01s-1.52-3.29-1.52-5.84c0-1.39,0.16-2.59,0.49-3.6s0.77-1.84,1.34-2.48s1.23-1.13,1.99-1.44
			s1.58-0.47,2.44-0.47c2.02,0,3.53,0.67,4.55,2S675.92,49.77,675.92,52.33z M672.87,52.47c0-1.81-0.24-3.16-0.73-4.05
			s-1.28-1.34-2.39-1.34c-0.55,0-1.03,0.12-1.42,0.35s-0.71,0.57-0.97,1.01s-0.44,0.99-0.56,1.65s-0.18,1.4-0.18,2.24
			c0,1.81,0.24,3.16,0.73,4.05s1.28,1.34,2.38,1.34c0.55,0,1.03-0.12,1.42-0.35s0.72-0.57,0.97-1.01s0.43-0.99,0.55-1.65
			S672.87,53.32,672.87,52.47z"/>
		<path class="st0" d="M688.3,55.43c0,0.84-0.15,1.56-0.46,2.18s-0.74,1.13-1.29,1.53s-1.21,0.7-1.98,0.9s-1.6,0.29-2.51,0.29
			c-0.8,0-1.58-0.05-2.33-0.14s-1.49-0.25-2.23-0.47v-2.85c0.36,0.13,0.73,0.24,1.13,0.35s0.78,0.21,1.18,0.29s0.79,0.15,1.18,0.19
			s0.77,0.07,1.14,0.07c0.55,0,1.01-0.05,1.39-0.14s0.7-0.22,0.94-0.39s0.42-0.36,0.53-0.59s0.16-0.48,0.16-0.75
			c0-0.38-0.11-0.69-0.32-0.94s-0.5-0.48-0.85-0.67s-0.75-0.37-1.2-0.53s-0.91-0.32-1.37-0.5s-0.92-0.38-1.37-0.61
			s-0.85-0.51-1.2-0.84s-0.63-0.74-0.85-1.2s-0.32-1.03-0.32-1.68c0-0.6,0.11-1.17,0.33-1.71s0.56-1.01,1.03-1.41
			s1.07-0.72,1.8-0.96s1.62-0.36,2.66-0.36c0.3,0,0.62,0.01,0.96,0.04s0.66,0.06,0.98,0.11s0.64,0.09,0.94,0.15s0.58,0.12,0.83,0.18
			v2.64c-0.25-0.09-0.52-0.18-0.82-0.26s-0.6-0.15-0.92-0.21s-0.63-0.1-0.96-0.13s-0.63-0.05-0.91-0.05c-0.51,0-0.94,0.04-1.29,0.12
			s-0.64,0.2-0.87,0.34s-0.39,0.32-0.49,0.53s-0.15,0.45-0.15,0.7c0,0.32,0.11,0.6,0.32,0.83s0.5,0.44,0.86,0.62
			s0.76,0.36,1.21,0.52s0.91,0.33,1.38,0.52s0.93,0.39,1.38,0.63s0.85,0.52,1.21,0.86s0.64,0.73,0.86,1.19S688.3,54.8,688.3,55.43z"
			/>
	</g>
	<text transform="matrix(1 0 0 1 596.1416 86.9014)" class="st4 st5">id</text>
	<text transform="matrix(1 0 0 1 596.1416 108.5014)" class="st4 st5">name</text>
	<text transform="matrix(1 0 0 1 596.1416 130.1014)" class="st4 st5">description</text>
	<text transform="matrix(1 0 0 1 596.1416 151.7014)" class="st4 st5">level</text>
	<text transform="matrix(1 0 0 1 596.1416 173.3014)" class="st4 st5">father_id</text>
	<text transform="matrix(1 0 0 1 596.1416 194.9014)" class="st4 st5">created_date</text>
	<text transform="matrix(1 0 0 1 596.1416 216.5014)" class="st4 st5">updated_date</text>
	<g>
		<path d="M571.5,77.15c0-2.22-1.8-4.02-4.02-4.02c-2.22,0-4.02,1.8-4.02,4.02c0,1.59,0.93,2.96,2.27,3.62v0.94h0.72v8.04h0.7V81.7
			h0.4v8.04h1.21V81.7h0.47v-0.94C570.57,80.11,571.5,78.74,571.5,77.15z M567.48,74.18c0.6,0,1.09,0.49,1.09,1.09
			s-0.49,1.09-1.09,1.09c-0.6,0-1.09-0.49-1.09-1.09S566.88,74.18,567.48,74.18z"/>
	</g>
	<g>
		<rect x="25" y="158.63" class="st0" width="169" height="84"/>
		<path class="st1" d="M193.5,159.13v83h-168v-83H193.5 M194.5,158.13h-170v85h170V158.13L194.5,158.13z"/>
	</g>
	<line class="st2" x1="26" y1="220.63" x2="193" y2="220.63"/>
	<path id="SVGID_x5F_2_x5F_" class="st6" d="M26,264.63h214"/>
	<text transform="matrix(1 0 0 1 118.3712 264.63)" class="st7 st8"> </text>
	<text transform="matrix(1 0 0 1 121.7051 264.63)" class="st7 st8"> </text>
	<text transform="matrix(1 0 0 1 125.0391 264.63)" class="st7 st8"> </text>
	<text class="st7 st8"> </text>
	<rect x="24.5" y="158.13" class="st3" width="170" height="41"/>
	<g>
		<path class="st0" d="M86.64,175.14v12.91h-2.95v-12.91h-4.2v-2.4h11.34v2.4H86.64z"/>
		<path class="st0" d="M101.73,188.05l-0.84-3.02h-5.34l-0.87,3.02h-2.86l4.54-15.32h4.03l4.54,15.32L101.73,188.05L101.73,188.05z
			 M98.25,175.55l-2.02,7.13h4.01L98.25,175.55z"/>
		<path class="st0" d="M111.63,181.57v-2.38h5.45v8.17c-0.7,0.33-1.44,0.57-2.2,0.73s-1.6,0.23-2.5,0.23
			c-1.06,0-2.02-0.16-2.87-0.49s-1.57-0.82-2.16-1.46s-1.05-1.45-1.37-2.41s-0.47-2.07-0.47-3.34c0-1.27,0.17-2.41,0.5-3.42
			s0.82-1.86,1.45-2.56s1.42-1.23,2.34-1.6s1.98-0.55,3.17-0.55c0.7,0,1.39,0.06,2.06,0.18s1.33,0.28,2,0.49V176
			c-0.58-0.27-1.22-0.5-1.92-0.67s-1.4-0.26-2.12-0.26s-1.35,0.13-1.9,0.38s-1.01,0.61-1.38,1.07s-0.65,1.03-0.84,1.7
			s-0.29,1.43-0.29,2.27c0,0.81,0.07,1.54,0.22,2.2s0.39,1.21,0.72,1.66s0.76,0.81,1.28,1.05s1.16,0.36,1.91,0.36
			c0.18,0,0.34-0.01,0.47-0.02s0.26-0.03,0.38-0.05s0.23-0.05,0.33-0.08s0.22-0.07,0.33-0.11v-3.91h-2.59V181.57z"/>
		<path class="st0" d="M130.11,183.43c0,0.84-0.15,1.56-0.46,2.18s-0.74,1.13-1.29,1.53s-1.21,0.7-1.98,0.9s-1.6,0.29-2.51,0.29
			c-0.8,0-1.58-0.05-2.33-0.14s-1.49-0.25-2.23-0.47v-2.85c0.36,0.13,0.73,0.24,1.13,0.35s0.78,0.21,1.18,0.29s0.79,0.15,1.18,0.19
			s0.77,0.07,1.14,0.07c0.55,0,1.01-0.05,1.39-0.14s0.7-0.22,0.94-0.39s0.42-0.36,0.53-0.59s0.16-0.48,0.16-0.75
			c0-0.38-0.11-0.69-0.32-0.94s-0.5-0.48-0.85-0.67s-0.75-0.37-1.2-0.53s-0.91-0.32-1.37-0.5s-0.92-0.38-1.37-0.61
			s-0.85-0.51-1.2-0.84s-0.63-0.74-0.85-1.2s-0.32-1.03-0.32-1.68c0-0.6,0.11-1.17,0.33-1.71s0.56-1.01,1.03-1.41
			s1.07-0.72,1.8-0.96s1.62-0.36,2.66-0.36c0.3,0,0.62,0.01,0.96,0.04s0.66,0.06,0.98,0.11s0.64,0.09,0.94,0.15s0.58,0.12,0.83,0.18
			v2.64c-0.25-0.09-0.52-0.18-0.82-0.26s-0.6-0.15-0.92-0.21s-0.63-0.1-0.96-0.13s-0.63-0.05-0.91-0.05c-0.51,0-0.94,0.04-1.29,0.12
			s-0.64,0.2-0.87,0.34s-0.39,0.32-0.49,0.53s-0.15,0.45-0.15,0.7c0,0.32,0.11,0.6,0.32,0.83s0.5,0.44,0.86,0.62
			s0.76,0.36,1.21,0.52s0.91,0.33,1.38,0.52s0.93,0.39,1.38,0.63c0.45,0.24,0.85,0.52,1.21,0.86s0.64,0.73,0.86,1.19
			S130.11,182.8,130.11,183.43z"/>
	</g>
	<text transform="matrix(1 0 0 1 66.1416 214.9014)" class="st4 st5">id</text>
	<text transform="matrix(1 0 0 1 66.1416 236.5014)" class="st4 st5">name</text>
	<line class="st2" x1="47" y1="199.63" x2="47" y2="241.63"/>
	<g>
		<path d="M39.5,205.15c0-2.22-1.8-4.02-4.02-4.02s-4.02,1.8-4.02,4.02c0,1.59,0.93,2.96,2.27,3.62v0.94h0.72v8.04h0.7v-8.04h0.4
			v8.04h1.21v-8.04h0.47v-0.94C38.57,208.11,39.5,206.74,39.5,205.15z M35.48,202.18c0.6,0,1.09,0.49,1.09,1.09
			c0,0.6-0.49,1.09-1.09,1.09s-1.09-0.49-1.09-1.09S34.88,202.18,35.48,202.18z"/>
	</g>
	<g>
		<rect x="304" y="259.63" class="st0" width="169" height="86"/>
		<path class="st1" d="M472.5,260.13v85h-168v-85H472.5 M473.5,259.13h-170v87h170V259.13L473.5,259.13z"/>
	</g>
	<line class="st2" x1="305" y1="322.63" x2="472" y2="322.63"/>
	<path id="SVGID_x5F_3_x5F_" class="st6" d="M305,365.63h214"/>
	<text transform="matrix(1 0 0 1 397.3712 365.63)" class="st7 st8"> </text>
	<text transform="matrix(1 0 0 1 400.7052 365.63)" class="st7 st8"> </text>
	<text transform="matrix(1 0 0 1 404.0391 365.63)" class="st7 st8"> </text>
	<text class="st7 st8"> </text>
	<rect x="303.5" y="259.13" class="st3" width="170" height="41"/>
	<g>
		<path class="st0" d="M345.64,276.14v12.91h-2.95v-12.91h-4.2v-2.4h11.34v2.4H345.64z"/>
		<path class="st0" d="M363.53,281.33c0,1.39-0.16,2.59-0.49,3.6s-0.77,1.84-1.34,2.48s-1.23,1.13-1.99,1.44s-1.58,0.47-2.44,0.47
			c-2.02,0-3.53-0.67-4.55-2.01s-1.52-3.29-1.52-5.84c0-1.39,0.16-2.59,0.49-3.6s0.77-1.84,1.34-2.48s1.23-1.13,1.99-1.44
			s1.58-0.47,2.44-0.47c2.02,0,3.53,0.67,4.55,2S363.53,278.77,363.53,281.33z M360.48,281.47c0-1.81-0.24-3.16-0.73-4.05
			s-1.28-1.34-2.39-1.34c-0.55,0-1.03,0.12-1.42,0.35s-0.71,0.57-0.97,1.01s-0.44,0.99-0.56,1.65s-0.18,1.4-0.18,2.24
			c0,1.81,0.24,3.16,0.73,4.05s1.28,1.34,2.38,1.34c0.55,0,1.03-0.12,1.42-0.35s0.72-0.57,0.97-1.01s0.43-0.99,0.55-1.65
			S360.48,282.32,360.48,281.47z"/>
		<path class="st0" d="M376.54,281.2c0,1.19-0.15,2.27-0.44,3.23s-0.75,1.79-1.37,2.48s-1.42,1.21-2.38,1.58s-2.13,0.56-3.48,0.56
			h-3.89v-15.32h4.54c1.17,0,2.2,0.15,3.08,0.44s1.61,0.74,2.2,1.35s1.03,1.38,1.32,2.32S376.54,279.91,376.54,281.2z
			 M373.44,281.39c0-0.83-0.07-1.57-0.2-2.21s-0.36-1.2-0.67-1.65s-0.74-0.79-1.27-1.03s-1.19-0.35-1.98-0.35h-1.46v10.49h1.27
			c1.41,0,2.49-0.42,3.22-1.27S373.44,283.2,373.44,281.39z"/>
		<path class="st0" d="M389.92,281.33c0,1.39-0.16,2.59-0.49,3.6s-0.77,1.84-1.34,2.48s-1.23,1.13-1.99,1.44s-1.58,0.47-2.44,0.47
			c-2.02,0-3.53-0.67-4.55-2.01s-1.52-3.29-1.52-5.84c0-1.39,0.16-2.59,0.49-3.6s0.77-1.84,1.34-2.48s1.23-1.13,1.99-1.44
			s1.58-0.47,2.44-0.47c2.02,0,3.53,0.67,4.55,2S389.92,278.77,389.92,281.33z M386.87,281.47c0-1.81-0.24-3.16-0.73-4.05
			s-1.28-1.34-2.39-1.34c-0.55,0-1.03,0.12-1.42,0.35s-0.71,0.57-0.97,1.01s-0.44,0.99-0.56,1.65s-0.18,1.4-0.18,2.24
			c0,1.81,0.24,3.16,0.73,4.05s1.28,1.34,2.38,1.34c0.55,0,1.03-0.12,1.42-0.35s0.72-0.57,0.97-1.01s0.43-0.99,0.55-1.65
			S386.87,282.32,386.87,281.47z"/>
		<path class="st0" d="M390.35,293.86v-2.26h13.2v2.26H390.35z"/>
		<path class="st0" d="M411.62,276.14v12.91h-2.95v-12.91h-4.2v-2.4h11.34v2.4H411.62z"/>
		<path class="st0" d="M426.7,289.05l-0.84-3.02h-5.34l-0.87,3.02h-2.86l4.54-15.32h4.03l4.54,15.32H426.7z M423.22,276.55
			l-2.02,7.13h4.01L423.22,276.55z"/>
		<path class="st0" d="M436.61,282.57v-2.38h5.45v8.17c-0.7,0.33-1.44,0.57-2.2,0.73s-1.6,0.23-2.5,0.23
			c-1.06,0-2.02-0.16-2.87-0.49s-1.57-0.82-2.16-1.46s-1.05-1.45-1.37-2.41s-0.47-2.07-0.47-3.34s0.17-2.41,0.5-3.42
			s0.82-1.86,1.45-2.56s1.42-1.23,2.34-1.6s1.98-0.55,3.17-0.55c0.7,0,1.39,0.06,2.06,0.18s1.33,0.28,2,0.49V277
			c-0.58-0.27-1.22-0.5-1.92-0.67s-1.4-0.26-2.12-0.26s-1.35,0.13-1.9,0.38s-1.01,0.61-1.38,1.07s-0.65,1.03-0.84,1.7
			s-0.29,1.43-0.29,2.27c0,0.81,0.07,1.54,0.22,2.2s0.39,1.21,0.72,1.66s0.76,0.81,1.28,1.05s1.16,0.36,1.91,0.36
			c0.18,0,0.34-0.01,0.47-0.02s0.26-0.03,0.38-0.05s0.23-0.05,0.33-0.08s0.22-0.07,0.33-0.11v-3.91h-2.59V282.57z"/>
	</g>
	<text transform="matrix(1 0 0 1 345.1416 315.9014)" class="st4 st5">id_todo</text>
	<text transform="matrix(1 0 0 1 345.1416 337.5014)" class="st4 st5">id_tag</text>
	<line class="st2" x1="326" y1="300.63" x2="326" y2="345.63"/>
	<g>
		<path d="M318.5,307.15c0-2.22-1.8-4.02-4.02-4.02s-4.02,1.8-4.02,4.02c0,1.59,0.93,2.96,2.27,3.62v0.94h0.72v8.04h0.7v-8.04h0.4
			v8.04h1.21v-8.04h0.47v-0.94C317.57,310.11,318.5,308.74,318.5,307.15z M314.48,304.18c0.6,0,1.09,0.49,1.09,1.09
			s-0.49,1.09-1.09,1.09s-1.09-0.49-1.09-1.09S313.88,304.18,314.48,304.18z"/>
	</g>
	<g>
		<path d="M319.5,330.15c0-2.22-1.8-4.02-4.02-4.02s-4.02,1.8-4.02,4.02c0,1.59,0.93,2.96,2.27,3.62v0.94h0.72v8.04h0.7v-8.04h0.4
			v8.04h1.21v-8.04h0.47v-0.94C318.57,333.11,319.5,331.74,319.5,330.15z M315.48,327.18c0.6,0,1.09,0.49,1.09,1.09
			s-0.49,1.09-1.09,1.09s-1.09-0.49-1.09-1.09S314.88,327.18,315.48,327.18z"/>
	</g>
	<line class="st9" x1="2" y1="146.63" x2="272.5" y2="146.63"/>
	<line class="st9" x1="2" y1="81.63" x2="18" y2="81.63"/>
	<line class="st9" x1="2" y1="146.63" x2="2" y2="81.63"/>
	<line class="st9" x1="17.5" y1="209.13" x2="1.5" y2="209.13"/>
	<line class="st9" x1="296.5" y1="335.13" x2="1.5" y2="335.13"/>
	<line class="st9" x1="1.5" y1="209.13" x2="1.5" y2="335.13"/>
	<line class="st9" x1="548.5" y1="81.13" x2="529.5" y2="81.13"/>
	<line class="st9" x1="529.5" y1="81.13" x2="529.5" y2="243.13"/>
	<line class="st9" x1="529.5" y1="243.49" x2="276.5" y2="243.49"/>
	<line class="st9" x1="242.74" y1="232.11" x2="242.74" y2="84.13"/>
	<line class="st9" x1="242.5" y1="84.13" x2="268.5" y2="84.13"/>
	<line class="st9" x1="297.5" y1="313.13" x2="276.5" y2="313.13"/>
	<line class="st9" x1="276.5" y1="243.13" x2="276.5" y2="313.13"/>
	<line class="st9" x1="548.5" y1="167.77" x2="514.64" y2="167.77"/>
	<line class="st9" x1="514.64" y1="232.11" x2="242.5" y2="232.11"/>
	<line class="st9" x1="514.64" y1="167.77" x2="514.64" y2="232.11"/>
</g>
</svg>
