<?xml version="1.0" encoding="utf-8"?>
<!-- Generator: Adobe Illustrator 23.0.1, SVG Export Plug-In . SVG Version: 6.00 Build 0)  -->
<svg version="1.1" xmlns="http://www.w3.org/2000/svg" xmlns:xlink="http://www.w3.org/1999/xlink" x="0px" y="0px"
	 viewBox="0 0 133.93 133.93" style="enable-background:new 0 0 133.93 133.93;" xml:space="preserve">
<style type="text/css">
	.st0{fill:#ED1C24;}
	.st1{fill:#FFFFFF;}
</style>
<g id="cirlcle_x2F_oval">
</g>
<g id="PHH">
	<circle class="st0" cx="66.96" cy="66.96" r="66.96"/>
	<g>
		<g>
			<path class="st1" d="M20.18,43.21H32.6c3.36,0,5.94,0.26,7.75,0.79c1.81,0.53,3.16,1.29,4.07,2.29s1.52,2.2,1.85,3.62
				c0.32,1.42,0.48,3.61,0.48,6.58v4.13c0,3.03-0.31,5.23-0.94,6.62c-0.63,1.39-1.77,2.45-3.44,3.19c-1.67,0.74-3.85,1.11-6.55,1.11
				h-3.31v19.1H20.18V43.21z M32.51,51.33V63.4c0.35,0.02,0.65,0.03,0.91,0.03c1.13,0,1.92-0.28,2.36-0.83s0.66-1.71,0.66-3.47v-3.9
				c0-1.62-0.25-2.68-0.76-3.16C35.16,51.57,34.11,51.33,32.51,51.33z"/>
			<path class="st1" d="M80.15,43.21v47.43H67.82V70.72h-3.69v19.92H51.79V43.21h12.33v16.96h3.69V43.21H80.15z"/>
			<path class="st1" d="M114.96,43.21v47.43h-12.33V70.72h-3.69v19.92H86.6V43.21h12.33v16.96h3.69V43.21H114.96z"/>
		</g>
	</g>
</g>
</svg>
