<?xml version="1.0" encoding="utf-8"?>
<!-- Generator: Adobe Illustrator 23.0.1, SVG Export Plug-In . SVG Version: 6.00 Build 0)  -->
<svg version="1.1" xmlns="http://www.w3.org/2000/svg" xmlns:xlink="http://www.w3.org/1999/xlink" x="0px" y="0px"
	 viewBox="0 0 1318 779.5" style="enable-background:new 0 0 1318 779.5;" xml:space="preserve">
<style type="text/css">
	.st0{fill:#4D4D4D;}
	.st1{fill:none;stroke:#3FA9F5;stroke-width:3;stroke-miterlimit:10;}
	.st2{fill:none;stroke:#000000;stroke-miterlimit:10;}
</style>
<g id="Layer_1">
</g>
<g id="Registration_x5F_container">
	<g id="registration">
	</g>
</g>
<g id="mytodos_x5F_container">
	<g id="mytodos">
	</g>
</g>
<g id="welcome_x5F_container">
	<g id="welcome">
	</g>
</g>
<g id="arrows">
</g>
<g id="search_x5F_container">
	<g id="search">
	</g>
</g>
<g id="todo_x5F_container">
	<g id="todo">
	</g>
</g>
<g id="library_x5F_container">
	<g id="library">
	</g>
</g>
<g id="todo_x5F_id_x5F_container">
	<g id="todo_x5F_id">
	</g>
</g>
<g id="library_x5F_id_x5F_container">
	<g>
		<g>
			<path d="M518.83,37.87h2.79l0.09,3.25c1.04-1.25,2.07-2.16,3.08-2.72s2.04-0.84,3.07-0.84c1.83,0,3.21,0.59,4.16,1.78
				s1.38,2.94,1.31,5.27h-3.09c0.04-1.55-0.19-2.67-0.68-3.37s-1.2-1.05-2.14-1.05c-0.41,0-0.82,0.07-1.24,0.22s-0.84,0.38-1.28,0.7
				s-0.91,0.74-1.4,1.24s-1.02,1.11-1.58,1.83v11.34h-3.09V37.87z"/>
			<path d="M552.81,45.77c0,0.43-0.01,0.8-0.02,1.09s-0.03,0.57-0.05,0.83h-12.39c0,1.8,0.5,3.19,1.51,4.16s2.46,1.45,4.36,1.45
				c0.52,0,1.03-0.02,1.55-0.06s1.01-0.1,1.49-0.17s0.94-0.15,1.38-0.24s0.85-0.18,1.22-0.29v2.51c-0.83,0.23-1.77,0.42-2.82,0.57
				s-2.14,0.22-3.26,0.22c-1.51,0-2.81-0.21-3.9-0.62s-1.98-1-2.68-1.78s-1.21-1.73-1.55-2.87s-0.5-2.41-0.5-3.84
				c0-1.24,0.18-2.42,0.54-3.52s0.88-2.08,1.56-2.92s1.53-1.5,2.52-2s2.13-0.74,3.39-0.74c1.23,0,2.32,0.19,3.27,0.58
				s1.75,0.93,2.4,1.64s1.14,1.57,1.48,2.58S552.81,44.51,552.81,45.77z M549.63,45.33c0.04-0.79-0.04-1.5-0.23-2.15
				s-0.48-1.21-0.87-1.68s-0.88-0.83-1.47-1.1s-1.27-0.4-2.04-0.4c-0.67,0-1.28,0.13-1.83,0.39s-1.03,0.62-1.42,1.09
				s-0.72,1.03-0.97,1.69s-0.4,1.38-0.46,2.16H549.63z"/>
			<path d="M570.41,40.37c0.33,0.41,0.58,0.89,0.76,1.43s0.27,1.13,0.27,1.77c0,0.91-0.17,1.75-0.5,2.5s-0.81,1.4-1.42,1.94
				s-1.34,0.96-2.19,1.26s-1.78,0.45-2.8,0.45c-0.74,0-1.43-0.08-2.07-0.24s-1.15-0.35-1.53-0.59c-0.22,0.33-0.41,0.64-0.56,0.93
				s-0.23,0.62-0.23,0.98c0,0.45,0.21,0.81,0.64,1.11s0.99,0.45,1.7,0.47l4.64,0.18c0.88,0.02,1.69,0.13,2.43,0.33
				s1.38,0.49,1.92,0.86s0.95,0.84,1.25,1.39s0.45,1.19,0.45,1.92c0,0.79-0.17,1.53-0.51,2.23s-0.86,1.32-1.57,1.85
				s-1.61,0.96-2.7,1.27S566,62.9,564.5,62.9c-1.43,0-2.65-0.11-3.65-0.34s-1.83-0.54-2.47-0.95s-1.11-0.88-1.41-1.44
				s-0.44-1.17-0.44-1.84c0-0.86,0.2-1.61,0.6-2.25s1.01-1.27,1.85-1.86c-0.3-0.14-0.57-0.32-0.79-0.53s-0.4-0.44-0.54-0.69
				s-0.25-0.52-0.32-0.8s-0.11-0.56-0.11-0.83c0-0.76,0.18-1.46,0.54-2.09s0.78-1.23,1.27-1.79c-0.22-0.27-0.42-0.53-0.59-0.79
				s-0.32-0.54-0.44-0.83s-0.22-0.62-0.28-0.97s-0.1-0.74-0.1-1.19c0-0.91,0.17-1.75,0.5-2.5s0.8-1.4,1.41-1.94s1.33-0.96,2.18-1.26
				s1.79-0.45,2.82-0.45c0.43,0,0.85,0.03,1.25,0.09s0.75,0.13,1.05,0.23h6.4v2.5H570.41z M559.79,58.07c0,0.83,0.43,1.44,1.3,1.82
				s2.07,0.57,3.62,0.57c0.97,0,1.79-0.09,2.45-0.26s1.2-0.41,1.6-0.69s0.69-0.62,0.87-0.98s0.26-0.75,0.26-1.13
				c0-0.71-0.29-1.24-0.88-1.58s-1.48-0.54-2.69-0.6l-4.61-0.16c-0.39,0.26-0.71,0.51-0.96,0.76s-0.45,0.5-0.59,0.75
				s-0.24,0.5-0.3,0.76S559.79,57.81,559.79,58.07z M560.72,43.64c0,0.56,0.09,1.08,0.28,1.55s0.45,0.87,0.79,1.2
				s0.74,0.58,1.2,0.76s0.98,0.27,1.54,0.27c0.61,0,1.15-0.1,1.63-0.31s0.87-0.48,1.2-0.83s0.57-0.76,0.74-1.21s0.25-0.93,0.25-1.42
				c0-0.56-0.09-1.08-0.28-1.55s-0.45-0.87-0.79-1.2s-0.74-0.58-1.2-0.76s-0.98-0.27-1.54-0.27c-0.61,0-1.15,0.11-1.63,0.32
				s-0.87,0.49-1.2,0.83s-0.57,0.75-0.74,1.2S560.72,43.15,560.72,43.64z"/>
			<path d="M583.5,40.4h-5.22v-2.53h8.31v15.1h5.26v2.55H577.7v-2.55h5.8V40.4z M584.57,30.47c0.34,0,0.66,0.06,0.95,0.18
				s0.55,0.3,0.76,0.52s0.39,0.48,0.51,0.76s0.18,0.6,0.18,0.94c0,0.33-0.06,0.64-0.18,0.93s-0.29,0.55-0.51,0.77
				s-0.47,0.4-0.76,0.52s-0.61,0.18-0.95,0.18s-0.66-0.06-0.95-0.18s-0.55-0.3-0.76-0.52s-0.39-0.48-0.51-0.77s-0.18-0.6-0.18-0.93
				c0-0.34,0.06-0.65,0.18-0.94s0.29-0.54,0.51-0.76s0.47-0.4,0.76-0.52S584.23,30.47,584.57,30.47z"/>
			<path d="M611.26,50.71c0,0.62-0.11,1.18-0.32,1.67s-0.5,0.93-0.86,1.31s-0.79,0.71-1.27,0.98s-0.99,0.49-1.54,0.67
				s-1.1,0.3-1.68,0.39s-1.14,0.12-1.69,0.12c-1.2,0-2.29-0.05-3.3-0.16s-1.98-0.28-2.94-0.51v-2.81c1.03,0.29,2.06,0.52,3.08,0.67
				s2.03,0.23,3.04,0.23c1.46,0,2.55-0.2,3.25-0.6s1.05-0.97,1.05-1.71c0-0.32-0.06-0.6-0.17-0.85s-0.31-0.49-0.61-0.72
				s-0.75-0.47-1.36-0.71s-1.46-0.53-2.52-0.84c-0.8-0.23-1.53-0.5-2.21-0.8s-1.26-0.65-1.75-1.06s-0.88-0.89-1.16-1.44
				s-0.42-1.2-0.42-1.95c0-0.49,0.11-1.03,0.34-1.62s0.62-1.13,1.17-1.63s1.29-0.92,2.23-1.26s2.11-0.5,3.52-0.5
				c0.69,0,1.46,0.04,2.3,0.11s1.72,0.21,2.64,0.4v2.72c-0.96-0.23-1.87-0.41-2.73-0.52s-1.61-0.17-2.24-0.17
				c-0.76,0-1.4,0.06-1.92,0.18s-0.94,0.28-1.27,0.48s-0.55,0.45-0.69,0.72s-0.21,0.57-0.21,0.89s0.06,0.6,0.18,0.86
				s0.35,0.51,0.69,0.75s0.8,0.48,1.4,0.72s1.38,0.5,2.34,0.78c1.04,0.3,1.92,0.62,2.64,0.96s1.29,0.71,1.74,1.12
				s0.76,0.87,0.96,1.39S611.26,50.05,611.26,50.71z"/>
			<path d="M631.3,55.28c-0.69,0.18-1.41,0.3-2.14,0.38s-1.49,0.11-2.25,0.11c-2.21,0-3.87-0.5-4.96-1.5s-1.63-2.54-1.63-4.61v-9.21
				h-4.94v-2.57h4.94v-4.85l3.06-0.79v5.64h7.93v2.57h-7.93v8.96c0,1.27,0.34,2.21,1.01,2.84s1.67,0.94,2.98,0.94
				c0.56,0,1.18-0.04,1.85-0.13s1.37-0.23,2.09-0.41V55.28z"/>
			<path d="M637.59,37.87h2.79l0.09,3.25c1.04-1.25,2.07-2.16,3.08-2.72s2.04-0.84,3.07-0.84c1.83,0,3.21,0.59,4.16,1.78
				s1.38,2.94,1.31,5.27H649c0.04-1.55-0.19-2.67-0.68-3.37s-1.2-1.05-2.14-1.05c-0.41,0-0.82,0.07-1.24,0.22s-0.84,0.38-1.28,0.7
				s-0.91,0.74-1.4,1.24s-1.02,1.11-1.58,1.83v11.34h-3.09V37.87z"/>
			<path d="M668,55.52l-0.07-2.37c-0.96,0.95-1.94,1.63-2.93,2.06s-2.03,0.63-3.12,0.63c-1.01,0-1.87-0.13-2.58-0.39
				s-1.3-0.61-1.77-1.06s-0.8-0.98-1.02-1.59s-0.33-1.27-0.33-1.99c0-1.77,0.66-3.16,1.98-4.16s3.27-1.5,5.84-1.5h3.66V43.6
				c0-1.04-0.33-1.88-1-2.5s-1.69-0.94-3.06-0.94c-1,0-1.98,0.11-2.94,0.33s-1.97,0.54-3,0.95v-2.76c0.39-0.14,0.82-0.28,1.29-0.41
				s0.98-0.25,1.5-0.36s1.08-0.19,1.65-0.25s1.15-0.1,1.74-0.1c1.07,0,2.03,0.12,2.88,0.35s1.58,0.59,2.17,1.07s1.05,1.08,1.36,1.81
				s0.47,1.58,0.47,2.57v12.16H668z M667.67,47.49h-3.88c-0.76,0-1.42,0.08-1.97,0.23s-1,0.37-1.35,0.65s-0.61,0.62-0.78,1.01
				s-0.25,0.83-0.25,1.33c0,0.34,0.05,0.67,0.16,0.98s0.28,0.59,0.51,0.83s0.54,0.43,0.91,0.57s0.83,0.21,1.37,0.21
				c0.7,0,1.51-0.21,2.42-0.64s1.87-1.1,2.87-2.03V47.49z"/>
			<path d="M690.67,55.28c-0.69,0.18-1.41,0.3-2.14,0.38s-1.49,0.11-2.25,0.11c-2.21,0-3.87-0.5-4.96-1.5s-1.63-2.54-1.63-4.61
				v-9.21h-4.94v-2.57h4.94v-4.85l3.06-0.79v5.64h7.93v2.57h-7.93v8.96c0,1.27,0.34,2.21,1.01,2.84s1.67,0.94,2.98,0.94
				c0.56,0,1.18-0.04,1.85-0.13s1.37-0.23,2.09-0.41V55.28z"/>
			<path d="M702.26,40.4h-5.22v-2.53h8.31v15.1h5.26v2.55h-14.15v-2.55h5.8V40.4z M703.33,30.47c0.34,0,0.66,0.06,0.95,0.18
				s0.55,0.3,0.76,0.52s0.39,0.48,0.51,0.76s0.18,0.6,0.18,0.94c0,0.33-0.06,0.64-0.18,0.93s-0.29,0.55-0.51,0.77
				s-0.47,0.4-0.76,0.52s-0.61,0.18-0.95,0.18s-0.66-0.06-0.95-0.18s-0.55-0.3-0.76-0.52s-0.39-0.48-0.51-0.77s-0.18-0.6-0.18-0.93
				c0-0.34,0.06-0.65,0.18-0.94s0.29-0.54,0.51-0.76s0.47-0.4,0.76-0.52S702.99,30.47,703.33,30.47z"/>
			<path d="M731.4,46.56c0,1.37-0.19,2.63-0.58,3.77s-0.94,2.12-1.67,2.94s-1.61,1.45-2.65,1.9s-2.23,0.68-3.55,0.68
				c-1.27,0-2.4-0.2-3.4-0.59s-1.85-0.97-2.55-1.73s-1.23-1.71-1.6-2.83s-0.55-2.42-0.55-3.88c0-1.37,0.19-2.62,0.58-3.75
				s0.94-2.1,1.67-2.92s1.61-1.45,2.65-1.9s2.23-0.68,3.55-0.68c1.27,0,2.4,0.2,3.4,0.59s1.85,0.97,2.55,1.72s1.23,1.7,1.6,2.82
				S731.4,45.1,731.4,46.56z M728.27,46.7c0-1.09-0.12-2.04-0.36-2.86s-0.58-1.49-1.03-2.04s-0.99-0.96-1.63-1.23
				s-1.35-0.41-2.14-0.41c-0.91,0-1.7,0.18-2.35,0.54s-1.18,0.83-1.6,1.43s-0.72,1.29-0.91,2.08s-0.29,1.62-0.29,2.49
				c0,1.09,0.12,2.04,0.36,2.87s0.58,1.5,1.03,2.05s0.98,0.96,1.62,1.23s1.35,0.41,2.14,0.41c0.91,0,1.7-0.18,2.35-0.54
				s1.18-0.83,1.6-1.43s0.72-1.29,0.91-2.08S728.27,47.58,728.27,46.7z"/>
			<path d="M735.83,37.87h2.72l0.12,2.85c0.52-0.61,1.01-1.12,1.49-1.52s0.95-0.73,1.42-0.98s0.93-0.42,1.42-0.52
				s0.98-0.15,1.49-0.15c1.82,0,3.19,0.54,4.12,1.61s1.4,2.69,1.4,4.84v11.51h-3.06V44.25c0-1.38-0.26-2.41-0.77-3.07
				s-1.28-0.99-2.3-0.99c-0.38,0-0.74,0.06-1.1,0.17s-0.73,0.3-1.12,0.58s-0.81,0.65-1.26,1.12s-0.96,1.05-1.52,1.76v11.71h-3.06
				V37.87z"/>
			<path d="M762.57,49.98c0.4,0,0.78,0.08,1.13,0.23s0.67,0.36,0.93,0.63s0.47,0.58,0.62,0.94s0.23,0.74,0.23,1.15
				c0,0.4-0.08,0.77-0.23,1.13s-0.36,0.66-0.62,0.92s-0.57,0.47-0.93,0.62s-0.74,0.23-1.13,0.23c-0.41,0-0.79-0.08-1.14-0.23
				s-0.66-0.36-0.92-0.62s-0.47-0.57-0.62-0.92s-0.23-0.73-0.23-1.13c0-0.41,0.08-0.79,0.23-1.15s0.36-0.67,0.62-0.94
				s0.57-0.48,0.92-0.63S762.16,49.98,762.57,49.98z"/>
			<path d="M790.5,46.38c0,1.57-0.22,2.94-0.66,4.11s-1.05,2.14-1.82,2.92s-1.69,1.35-2.74,1.74s-2.2,0.58-3.43,0.58
				c-0.56,0-1.12-0.03-1.68-0.09s-1.12-0.16-1.7-0.3v7.38h-3.06V37.87h2.72l0.19,2.95c0.88-1.21,1.82-2.05,2.81-2.54
				s2.07-0.73,3.23-0.73c1.01,0,1.89,0.21,2.65,0.63s1.4,1.02,1.92,1.78s0.9,1.69,1.16,2.78S790.5,45.04,790.5,46.38z M787.37,46.52
				c0-0.93-0.07-1.78-0.2-2.55s-0.35-1.44-0.64-1.99s-0.67-0.98-1.13-1.29s-1-0.47-1.63-0.47c-0.39,0-0.78,0.06-1.18,0.18
				s-0.81,0.33-1.24,0.62s-0.88,0.67-1.35,1.14s-0.98,1.06-1.52,1.77v8.56c0.56,0.23,1.15,0.42,1.78,0.55s1.23,0.2,1.83,0.2
				c1.65,0,2.95-0.56,3.88-1.68S787.37,48.77,787.37,46.52z"/>
			<path d="M809.4,55.52h-3.06V44.25c0-1.36-0.25-2.38-0.76-3.05s-1.24-1.01-2.19-1.01c-0.41,0-0.79,0.06-1.15,0.17
				s-0.73,0.3-1.12,0.58s-0.81,0.65-1.27,1.12s-0.98,1.05-1.58,1.76v11.71h-3.06V30.68h3.06v7.19l-0.11,2.78
				c0.48-0.57,0.95-1.06,1.42-1.45s0.93-0.71,1.39-0.96s0.93-0.42,1.42-0.53s0.98-0.16,1.49-0.16c1.76,0,3.12,0.54,4.08,1.61
				s1.44,2.69,1.44,4.84V55.52z"/>
			<path d="M830.09,46.38c0,1.57-0.22,2.94-0.66,4.11s-1.05,2.14-1.82,2.92s-1.69,1.35-2.74,1.74s-2.2,0.58-3.43,0.58
				c-0.56,0-1.12-0.03-1.68-0.09s-1.12-0.16-1.7-0.3v7.38H815V37.87h2.72l0.19,2.95c0.88-1.21,1.82-2.05,2.81-2.54
				s2.07-0.73,3.23-0.73c1.01,0,1.89,0.21,2.65,0.63s1.4,1.02,1.92,1.78s0.9,1.69,1.16,2.78S830.09,45.04,830.09,46.38z
				 M826.96,46.52c0-0.93-0.07-1.78-0.2-2.55s-0.35-1.44-0.64-1.99s-0.67-0.98-1.13-1.29s-1-0.47-1.63-0.47
				c-0.39,0-0.78,0.06-1.18,0.18s-0.81,0.33-1.24,0.62s-0.88,0.67-1.35,1.14s-0.98,1.06-1.52,1.77v8.56
				c0.56,0.23,1.15,0.42,1.78,0.55s1.23,0.2,1.83,0.2c1.65,0,2.95-0.56,3.88-1.68S826.96,48.77,826.96,46.52z"/>
		</g>
		<path class="st0" d="M847.5,1v88h-348V1H847.5 M848.5,0h-350v90h350V0L848.5,0z"/>
		<g>
			<path d="M165.38,189.94v-12.67c0-0.55-0.02-1-0.06-1.35s-0.11-0.63-0.19-0.83s-0.2-0.35-0.33-0.43s-0.3-0.12-0.5-0.12
				c-0.23,0-0.45,0.07-0.65,0.21s-0.41,0.37-0.64,0.69s-0.48,0.74-0.76,1.26s-0.6,1.16-0.98,1.92v11.34h-2.79V177.6
				c0-0.64-0.02-1.17-0.06-1.56s-0.11-0.71-0.19-0.93s-0.2-0.38-0.34-0.46s-0.31-0.12-0.51-0.12c-0.21,0-0.41,0.06-0.6,0.18
				s-0.4,0.33-0.62,0.63s-0.48,0.72-0.76,1.25s-0.62,1.2-1,2.02v11.34h-2.81v-17.65h2.34l0.14,3.36c0.3-0.67,0.6-1.24,0.89-1.71
				s0.58-0.85,0.89-1.13s0.63-0.5,0.98-0.63s0.73-0.2,1.15-0.2c0.95,0,1.67,0.31,2.16,0.93s0.74,1.58,0.74,2.88
				c0.28-0.61,0.56-1.15,0.83-1.63s0.56-0.87,0.87-1.2s0.65-0.57,1.03-0.74s0.81-0.25,1.3-0.25c2.21,0,3.32,1.71,3.32,5.12v12.85
				H165.38z"/>
			<path d="M188.28,172.29l-6.01,15.79c-0.62,1.61-1.26,2.99-1.92,4.15s-1.39,2.11-2.17,2.86s-1.65,1.29-2.58,1.64
				s-1.99,0.53-3.15,0.53c-0.3,0-0.58-0.01-0.83-0.02s-0.52-0.03-0.81-0.05v-2.78c0.26,0.04,0.54,0.07,0.84,0.1s0.63,0.04,0.97,0.04
				c0.56,0,1.09-0.08,1.57-0.25s0.95-0.43,1.38-0.8s0.85-0.85,1.25-1.43s0.79-1.29,1.16-2.13l-7.05-17.65h3.48l4.46,11.67l0.9,2.74
				l1.02-2.81l4.13-11.6H188.28z"/>
			<path d="M206.6,189.69c-0.69,0.18-1.41,0.3-2.14,0.38s-1.49,0.11-2.25,0.11c-2.21,0-3.87-0.5-4.96-1.5s-1.63-2.54-1.63-4.61
				v-9.21h-4.94v-2.57h4.94v-4.85l3.06-0.79v5.64h7.93v2.57h-7.93v8.96c0,1.27,0.34,2.21,1.01,2.84s1.67,0.94,2.98,0.94
				c0.56,0,1.18-0.04,1.85-0.13s1.37-0.23,2.09-0.41V189.69z"/>
			<path d="M227.53,180.97c0,1.37-0.19,2.63-0.58,3.77s-0.94,2.12-1.67,2.94s-1.61,1.45-2.65,1.9s-2.23,0.68-3.55,0.68
				c-1.27,0-2.4-0.2-3.4-0.59s-1.85-0.97-2.55-1.73s-1.23-1.71-1.6-2.83s-0.55-2.42-0.55-3.88c0-1.37,0.19-2.62,0.58-3.75
				s0.94-2.1,1.67-2.92s1.61-1.45,2.65-1.9s2.23-0.68,3.55-0.68c1.27,0,2.4,0.2,3.4,0.59s1.85,0.97,2.55,1.72s1.23,1.7,1.6,2.82
				S227.53,179.52,227.53,180.97z M224.4,181.11c0-1.09-0.12-2.04-0.36-2.86s-0.58-1.49-1.03-2.04s-0.99-0.96-1.63-1.23
				s-1.35-0.41-2.14-0.41c-0.91,0-1.7,0.18-2.35,0.54s-1.18,0.83-1.6,1.43s-0.72,1.29-0.91,2.08s-0.29,1.62-0.29,2.49
				c0,1.09,0.12,2.04,0.36,2.87s0.58,1.5,1.03,2.05s0.98,0.96,1.62,1.23s1.35,0.41,2.14,0.41c0.91,0,1.7-0.18,2.35-0.54
				s1.18-0.83,1.6-1.43s0.72-1.29,0.91-2.08S224.4,181.99,224.4,181.11z"/>
			<path d="M231.07,181.48c0-1.5,0.21-2.83,0.62-4s0.99-2.15,1.75-2.95s1.66-1.41,2.72-1.83s2.24-0.62,3.54-0.62
				c0.56,0,1.12,0.04,1.66,0.11s1.08,0.18,1.61,0.33v-7.42h3.08v24.84h-2.74l-0.11-3.34c-0.86,1.24-1.78,2.16-2.78,2.76
				s-2.07,0.9-3.23,0.9c-1.01,0-1.9-0.21-2.66-0.63s-1.41-1.02-1.92-1.78s-0.89-1.69-1.15-2.77S231.07,182.79,231.07,181.48z
				 M234.2,181.29c0,2.13,0.31,3.72,0.94,4.77s1.51,1.57,2.66,1.57c0.77,0,1.59-0.35,2.45-1.04s1.77-1.72,2.72-3.08v-8.19
				c-0.5-0.23-1.06-0.41-1.67-0.54s-1.21-0.18-1.81-0.18c-1.66,0-2.96,0.54-3.89,1.62S234.2,178.99,234.2,181.29z"/>
			<path d="M267.12,180.97c0,1.37-0.19,2.63-0.58,3.77s-0.94,2.12-1.67,2.94s-1.61,1.45-2.65,1.9s-2.23,0.68-3.55,0.68
				c-1.27,0-2.4-0.2-3.4-0.59s-1.85-0.97-2.55-1.73s-1.23-1.71-1.6-2.83s-0.55-2.42-0.55-3.88c0-1.37,0.19-2.62,0.58-3.75
				s0.94-2.1,1.67-2.92s1.61-1.45,2.65-1.9s2.23-0.68,3.55-0.68c1.27,0,2.4,0.2,3.4,0.59s1.85,0.97,2.55,1.72s1.23,1.7,1.6,2.82
				S267.12,179.52,267.12,180.97z M263.99,181.11c0-1.09-0.12-2.04-0.36-2.86s-0.58-1.49-1.03-2.04s-0.99-0.96-1.63-1.23
				s-1.35-0.41-2.14-0.41c-0.91,0-1.7,0.18-2.35,0.54s-1.18,0.83-1.6,1.43s-0.72,1.29-0.91,2.08s-0.29,1.62-0.29,2.49
				c0,1.09,0.12,2.04,0.36,2.87s0.58,1.5,1.03,2.05s0.98,0.96,1.62,1.23s1.35,0.41,2.14,0.41c0.91,0,1.7-0.18,2.35-0.54
				s1.18-0.83,1.6-1.43s0.72-1.29,0.91-2.08S263.99,181.99,263.99,181.11z"/>
			<path d="M285.52,185.12c0,0.62-0.11,1.18-0.32,1.67s-0.5,0.93-0.86,1.31s-0.79,0.71-1.27,0.98s-0.99,0.49-1.54,0.67
				s-1.1,0.3-1.68,0.39s-1.14,0.12-1.69,0.12c-1.2,0-2.29-0.05-3.3-0.16s-1.98-0.28-2.94-0.51v-2.81c1.03,0.29,2.06,0.52,3.08,0.67
				s2.03,0.23,3.04,0.23c1.46,0,2.55-0.2,3.25-0.6s1.05-0.97,1.05-1.71c0-0.32-0.06-0.6-0.17-0.85s-0.31-0.49-0.61-0.72
				s-0.75-0.47-1.36-0.71s-1.46-0.53-2.52-0.84c-0.8-0.23-1.53-0.5-2.21-0.8s-1.26-0.65-1.75-1.06s-0.88-0.89-1.16-1.44
				s-0.42-1.2-0.42-1.95c0-0.49,0.11-1.03,0.34-1.62s0.62-1.13,1.17-1.63s1.29-0.92,2.23-1.26s2.11-0.5,3.52-0.5
				c0.69,0,1.46,0.04,2.3,0.11s1.72,0.21,2.64,0.4v2.72c-0.96-0.23-1.87-0.41-2.73-0.52s-1.61-0.17-2.24-0.17
				c-0.76,0-1.4,0.06-1.92,0.18s-0.94,0.28-1.27,0.48s-0.55,0.45-0.69,0.72s-0.21,0.57-0.21,0.89s0.06,0.6,0.18,0.86
				s0.35,0.51,0.69,0.75s0.8,0.48,1.4,0.72s1.38,0.5,2.34,0.78c1.04,0.3,1.92,0.62,2.64,0.96s1.29,0.71,1.74,1.12
				s0.76,0.87,0.96,1.39S285.52,184.46,285.52,185.12z"/>
			<path d="M298.29,184.4c0.4,0,0.78,0.08,1.13,0.23s0.67,0.36,0.93,0.63s0.47,0.58,0.62,0.94s0.23,0.74,0.23,1.15
				c0,0.4-0.08,0.77-0.23,1.13s-0.36,0.66-0.62,0.92s-0.57,0.47-0.93,0.62s-0.74,0.23-1.13,0.23c-0.41,0-0.79-0.08-1.14-0.23
				s-0.66-0.36-0.92-0.62s-0.47-0.57-0.62-0.92s-0.23-0.73-0.23-1.13c0-0.41,0.08-0.79,0.23-1.15s0.36-0.67,0.62-0.94
				s0.57-0.48,0.92-0.63S297.88,184.4,298.29,184.4z"/>
			<path d="M326.22,180.8c0,1.57-0.22,2.94-0.66,4.11s-1.05,2.14-1.82,2.92s-1.69,1.35-2.74,1.74s-2.2,0.58-3.43,0.58
				c-0.56,0-1.12-0.03-1.68-0.09s-1.12-0.16-1.7-0.3v7.38h-3.06v-24.86h2.72l0.19,2.95c0.88-1.21,1.82-2.05,2.81-2.54
				s2.07-0.73,3.23-0.73c1.01,0,1.89,0.21,2.65,0.63s1.4,1.02,1.92,1.78s0.9,1.69,1.16,2.78S326.22,179.46,326.22,180.8z
				 M323.09,180.94c0-0.93-0.07-1.78-0.2-2.55s-0.35-1.44-0.64-1.99s-0.67-0.98-1.13-1.29s-1-0.47-1.63-0.47
				c-0.39,0-0.78,0.06-1.18,0.18s-0.81,0.33-1.24,0.62s-0.88,0.67-1.35,1.14s-0.98,1.06-1.52,1.77v8.56
				c0.56,0.23,1.15,0.42,1.78,0.55s1.23,0.2,1.83,0.2c1.65,0,2.95-0.56,3.88-1.68S323.09,183.19,323.09,180.94z"/>
			<path d="M345.11,189.94h-3.06v-11.27c0-1.36-0.25-2.38-0.76-3.05s-1.24-1.01-2.19-1.01c-0.41,0-0.79,0.06-1.15,0.17
				s-0.73,0.3-1.12,0.58s-0.81,0.65-1.27,1.12s-0.98,1.05-1.58,1.76v11.71h-3.06V165.1h3.06v7.19l-0.11,2.78
				c0.48-0.57,0.95-1.06,1.42-1.45s0.93-0.71,1.39-0.96s0.93-0.42,1.42-0.53s0.98-0.16,1.49-0.16c1.76,0,3.12,0.54,4.08,1.61
				s1.44,2.69,1.44,4.84V189.94z"/>
			<path d="M365.8,180.8c0,1.57-0.22,2.94-0.66,4.11s-1.05,2.14-1.82,2.92s-1.69,1.35-2.74,1.74s-2.2,0.58-3.43,0.58
				c-0.56,0-1.12-0.03-1.68-0.09s-1.12-0.16-1.7-0.3v7.38h-3.06v-24.86h2.72l0.19,2.95c0.88-1.21,1.82-2.05,2.81-2.54
				s2.07-0.73,3.23-0.73c1.01,0,1.89,0.21,2.65,0.63s1.4,1.02,1.92,1.78s0.9,1.69,1.16,2.78S365.8,179.46,365.8,180.8z
				 M362.67,180.94c0-0.93-0.07-1.78-0.2-2.55s-0.35-1.44-0.64-1.99s-0.67-0.98-1.13-1.29s-1-0.47-1.63-0.47
				c-0.39,0-0.78,0.06-1.18,0.18s-0.81,0.33-1.24,0.62s-0.88,0.67-1.35,1.14s-0.98,1.06-1.52,1.77v8.56
				c0.56,0.23,1.15,0.42,1.78,0.55s1.23,0.2,1.83,0.2c1.65,0,2.95-0.56,3.88-1.68S362.67,183.19,362.67,180.94z"/>
		</g>
		<line class="st1" x1="288.5" y1="45" x2="288.5" y2="121"/>
		<line class="st1" x1="1063" y1="44.5" x2="1063" y2="120.5"/>
		<path d="M441,138.5v88H93v-88H441 M442,137.5H92v90h350V137.5L442,137.5z"/>
		<g>
			<path d="M964.46,173.26l-2.57,17.65h-3.71l-2.55-7.38l-0.51-1.79l-0.58,1.9l-2.44,7.28h-3.6l-2.55-17.65h2.99l1.48,11.99
				l0.32,2.67l0.76-2.34l2.57-7.93h2.2l2.76,7.82l0.79,2.34l0.26-2.48l1.37-12.08H964.46z"/>
			<path d="M982.81,181.15c0,0.43-0.01,0.8-0.02,1.09s-0.03,0.57-0.05,0.83h-12.39c0,1.8,0.5,3.19,1.51,4.16s2.46,1.45,4.36,1.45
				c0.52,0,1.03-0.02,1.55-0.06s1.01-0.1,1.49-0.17s0.94-0.15,1.38-0.24s0.85-0.18,1.22-0.29v2.51c-0.83,0.23-1.77,0.42-2.82,0.57
				s-2.14,0.22-3.26,0.22c-1.51,0-2.81-0.21-3.9-0.62s-1.98-1-2.68-1.78s-1.21-1.73-1.55-2.87s-0.5-2.41-0.5-3.84
				c0-1.24,0.18-2.42,0.54-3.52s0.88-2.08,1.56-2.92s1.53-1.5,2.52-2s2.13-0.74,3.39-0.74c1.23,0,2.32,0.19,3.27,0.58
				s1.75,0.93,2.4,1.64s1.14,1.57,1.48,2.58S982.81,179.89,982.81,181.15z M979.63,180.71c0.04-0.79-0.04-1.5-0.23-2.15
				s-0.48-1.21-0.87-1.68s-0.88-0.83-1.47-1.1s-1.27-0.4-2.04-0.4c-0.67,0-1.28,0.13-1.83,0.39s-1.03,0.62-1.42,1.09
				s-0.72,1.03-0.97,1.69s-0.4,1.38-0.46,2.16H979.63z"/>
			<path d="M993.71,168.58h-5.22v-2.51h8.31v22.29h5.26v2.55h-14.15v-2.55h5.8V168.58z"/>
			<path d="M1021.2,190.25c-0.8,0.3-1.61,0.53-2.45,0.68s-1.7,0.22-2.59,0.22c-2.79,0-4.94-0.76-6.44-2.27s-2.26-3.72-2.26-6.63
				c0-1.39,0.22-2.66,0.65-3.8s1.04-2.11,1.83-2.92s1.72-1.43,2.81-1.87s2.29-0.66,3.6-0.66c0.91,0,1.77,0.06,2.57,0.19
				s1.56,0.34,2.29,0.63v2.92c-0.76-0.4-1.54-0.69-2.33-0.87s-1.61-0.27-2.45-0.27c-0.79,0-1.53,0.15-2.22,0.45
				s-1.31,0.73-1.84,1.29s-0.94,1.25-1.25,2.06s-0.46,1.72-0.46,2.74c0,2.13,0.52,3.73,1.56,4.79s2.48,1.59,4.32,1.59
				c0.83,0,1.64-0.09,2.42-0.28s1.53-0.47,2.26-0.84V190.25z"/>
			<path d="M1042.65,181.94c0,1.37-0.19,2.63-0.58,3.77s-0.94,2.12-1.67,2.94s-1.61,1.45-2.65,1.9s-2.23,0.68-3.55,0.68
				c-1.27,0-2.4-0.2-3.4-0.59s-1.85-0.97-2.55-1.73s-1.23-1.71-1.6-2.83s-0.55-2.42-0.55-3.88c0-1.37,0.19-2.62,0.58-3.75
				s0.94-2.1,1.67-2.92s1.61-1.45,2.65-1.9s2.23-0.68,3.55-0.68c1.27,0,2.4,0.2,3.4,0.59s1.85,0.97,2.55,1.72s1.23,1.7,1.6,2.82
				S1042.65,180.49,1042.65,181.94z M1039.52,182.08c0-1.09-0.12-2.04-0.36-2.86s-0.58-1.49-1.03-2.04s-0.99-0.96-1.63-1.23
				s-1.35-0.41-2.14-0.41c-0.91,0-1.7,0.18-2.35,0.54s-1.18,0.83-1.6,1.43s-0.72,1.29-0.91,2.08s-0.29,1.62-0.29,2.49
				c0,1.09,0.12,2.04,0.36,2.87s0.58,1.5,1.03,2.05s0.98,0.96,1.62,1.23s1.35,0.41,2.14,0.41c0.91,0,1.7-0.18,2.35-0.54
				s1.18-0.83,1.6-1.43s0.72-1.29,0.91-2.08S1039.52,182.96,1039.52,182.08z"/>
			<path d="M1059.66,190.9v-12.67c0-0.55-0.02-1-0.06-1.35s-0.11-0.63-0.19-0.83s-0.2-0.35-0.33-0.43s-0.3-0.12-0.5-0.12
				c-0.23,0-0.45,0.07-0.65,0.21s-0.41,0.37-0.64,0.69s-0.48,0.74-0.76,1.26s-0.6,1.16-0.98,1.92v11.34h-2.79v-12.34
				c0-0.64-0.02-1.17-0.06-1.56s-0.11-0.71-0.19-0.93s-0.2-0.38-0.34-0.46s-0.31-0.12-0.51-0.12c-0.21,0-0.41,0.06-0.6,0.18
				s-0.4,0.33-0.62,0.63s-0.48,0.72-0.76,1.25s-0.62,1.2-1,2.02v11.34h-2.81v-17.65h2.34l0.14,3.36c0.3-0.67,0.6-1.24,0.89-1.71
				s0.58-0.85,0.89-1.13s0.63-0.5,0.98-0.63s0.73-0.2,1.15-0.2c0.95,0,1.67,0.31,2.16,0.93s0.74,1.58,0.74,2.88
				c0.28-0.61,0.56-1.15,0.83-1.63s0.56-0.87,0.87-1.2s0.65-0.57,1.03-0.74s0.81-0.25,1.3-0.25c2.21,0,3.32,1.71,3.32,5.12v12.85
				H1059.66z"/>
			<path d="M1081.77,181.15c0,0.43-0.01,0.8-0.02,1.09s-0.03,0.57-0.05,0.83h-12.39c0,1.8,0.5,3.19,1.51,4.16s2.46,1.45,4.36,1.45
				c0.52,0,1.03-0.02,1.55-0.06s1.01-0.1,1.49-0.17s0.94-0.15,1.38-0.24s0.85-0.18,1.22-0.29v2.51c-0.83,0.23-1.77,0.42-2.82,0.57
				s-2.14,0.22-3.26,0.22c-1.51,0-2.81-0.21-3.9-0.62s-1.98-1-2.68-1.78s-1.21-1.73-1.55-2.87s-0.5-2.41-0.5-3.84
				c0-1.24,0.18-2.42,0.54-3.52s0.88-2.08,1.56-2.92s1.53-1.5,2.52-2s2.13-0.74,3.39-0.74c1.23,0,2.32,0.19,3.27,0.58
				s1.75,0.93,2.4,1.64s1.14,1.57,1.48,2.58S1081.77,179.89,1081.77,181.15z M1078.59,180.71c0.04-0.79-0.04-1.5-0.23-2.15
				s-0.48-1.21-0.87-1.68s-0.88-0.83-1.47-1.1s-1.27-0.4-2.04-0.4c-0.67,0-1.28,0.13-1.83,0.39s-1.03,0.62-1.42,1.09
				s-0.72,1.03-0.97,1.69s-0.4,1.38-0.46,2.16H1078.59z"/>
			<path d="M1093.6,185.37c0.4,0,0.78,0.08,1.13,0.23s0.67,0.36,0.93,0.63s0.47,0.58,0.62,0.94s0.23,0.74,0.23,1.15
				c0,0.4-0.08,0.77-0.23,1.13s-0.36,0.66-0.62,0.92s-0.57,0.47-0.93,0.62s-0.74,0.23-1.13,0.23c-0.41,0-0.79-0.08-1.14-0.23
				s-0.66-0.36-0.92-0.62s-0.47-0.57-0.62-0.92s-0.23-0.73-0.23-1.13c0-0.41,0.08-0.79,0.23-1.15s0.36-0.67,0.62-0.94
				s0.57-0.48,0.92-0.63S1093.19,185.37,1093.6,185.37z"/>
			<path d="M1121.54,181.76c0,1.57-0.22,2.94-0.66,4.11s-1.05,2.14-1.82,2.92s-1.69,1.35-2.74,1.74s-2.2,0.58-3.43,0.58
				c-0.56,0-1.12-0.03-1.68-0.09s-1.12-0.16-1.7-0.3v7.38h-3.06v-24.86h2.72l0.19,2.95c0.88-1.21,1.82-2.05,2.81-2.54
				s2.07-0.73,3.23-0.73c1.01,0,1.89,0.21,2.65,0.63s1.4,1.02,1.92,1.78s0.9,1.69,1.16,2.78S1121.54,180.43,1121.54,181.76z
				 M1118.41,181.9c0-0.93-0.07-1.78-0.2-2.55s-0.35-1.44-0.64-1.99s-0.67-0.98-1.13-1.29s-1-0.47-1.63-0.47
				c-0.39,0-0.78,0.06-1.18,0.18s-0.81,0.33-1.24,0.62s-0.88,0.67-1.35,1.14s-0.98,1.06-1.52,1.77v8.56
				c0.56,0.23,1.15,0.42,1.78,0.55s1.23,0.2,1.83,0.2c1.65,0,2.95-0.56,3.88-1.68S1118.41,184.15,1118.41,181.9z"/>
			<path d="M1140.43,190.9h-3.06v-11.27c0-1.36-0.25-2.38-0.76-3.05s-1.24-1.01-2.19-1.01c-0.41,0-0.79,0.06-1.15,0.17
				s-0.73,0.3-1.12,0.58s-0.81,0.65-1.27,1.12s-0.98,1.05-1.58,1.76v11.71h-3.06v-24.84h3.06v7.19l-0.11,2.78
				c0.48-0.57,0.95-1.06,1.42-1.45s0.93-0.71,1.39-0.96s0.93-0.42,1.42-0.53s0.98-0.16,1.49-0.16c1.76,0,3.12,0.54,4.08,1.61
				s1.44,2.69,1.44,4.84V190.9z"/>
			<path d="M1161.12,181.76c0,1.57-0.22,2.94-0.66,4.11s-1.05,2.14-1.82,2.92s-1.69,1.35-2.74,1.74s-2.2,0.58-3.43,0.58
				c-0.56,0-1.12-0.03-1.68-0.09s-1.12-0.16-1.7-0.3v7.38h-3.06v-24.86h2.72l0.19,2.95c0.88-1.21,1.82-2.05,2.81-2.54
				s2.07-0.73,3.23-0.73c1.01,0,1.89,0.21,2.65,0.63s1.4,1.02,1.92,1.78s0.9,1.69,1.16,2.78S1161.12,180.43,1161.12,181.76z
				 M1157.99,181.9c0-0.93-0.07-1.78-0.2-2.55s-0.35-1.44-0.64-1.99s-0.67-0.98-1.13-1.29s-1-0.47-1.63-0.47
				c-0.39,0-0.78,0.06-1.18,0.18s-0.81,0.33-1.24,0.62s-0.88,0.67-1.35,1.14s-0.98,1.06-1.52,1.77v8.56
				c0.56,0.23,1.15,0.42,1.78,0.55s1.23,0.2,1.83,0.2c1.65,0,2.95-0.56,3.88-1.68S1157.99,184.15,1157.99,181.9z"/>
		</g>
		<rect x="888.5" y="138" class="st2" width="350" height="90"/>
		<line class="st1" x1="488" y1="45" x2="288" y2="45"/>
		<line class="st1" x1="863.5" y1="45" x2="1063.5" y2="45"/>
		<line class="st1" x1="1.5" y1="182" x2="1.5" y2="623"/>
		<line class="st1" x1="1316.5" y1="182" x2="1316.5" y2="623"/>
		<line class="st1" x1="1.5" y1="623" x2="1316.5" y2="623"/>
		<line class="st1" x1="1.5" y1="182" x2="79.5" y2="182"/>
		<line class="st1" x1="1316.5" y1="182" x2="1248.5" y2="182"/>
		<line class="st1" x1="266.5" y1="416" x2="1043.5" y2="416"/>
		<line class="st1" x1="266.5" y1="416" x2="266.5" y2="238"/>
		<line class="st1" x1="1043.5" y1="416" x2="1043.5" y2="459"/>
		<line class="st1" x1="474.5" y1="416" x2="474.5" y2="459"/>
		<line class="st1" x1="682.5" y1="416" x2="682.5" y2="382"/>
		<g>
			<path d="M510.77,331.11c0.4,0,0.78,0.08,1.13,0.23s0.67,0.36,0.93,0.63s0.47,0.58,0.62,0.94s0.23,0.74,0.23,1.15
				c0,0.4-0.08,0.77-0.23,1.13s-0.36,0.66-0.62,0.92s-0.57,0.47-0.93,0.62s-0.74,0.23-1.13,0.23c-0.41,0-0.79-0.08-1.14-0.23
				s-0.66-0.36-0.92-0.62s-0.47-0.57-0.62-0.92s-0.23-0.73-0.23-1.13c0-0.41,0.08-0.79,0.23-1.15s0.36-0.67,0.62-0.94
				s0.57-0.48,0.92-0.63S510.36,331.11,510.77,331.11z"/>
			<path d="M537.8,311.81l-12.06,28.62h-2.92l12.06-28.62H537.8z"/>
			<path d="M541.76,319h3.48l4.32,11.67l0.93,2.85l0.97-2.92l4.29-11.6h3.36l-6.93,17.65h-3.52L541.76,319z"/>
			<path d="M569.21,321.53h-5.22V319h8.31v15.1h5.26v2.55h-14.15v-2.55h5.8V321.53z M570.29,311.6c0.34,0,0.66,0.06,0.95,0.18
				s0.55,0.3,0.76,0.52s0.39,0.48,0.51,0.76s0.18,0.6,0.18,0.94c0,0.33-0.06,0.64-0.18,0.93s-0.29,0.55-0.51,0.77
				s-0.47,0.4-0.76,0.52s-0.61,0.18-0.95,0.18s-0.66-0.06-0.95-0.18s-0.55-0.3-0.76-0.52s-0.39-0.48-0.51-0.77s-0.18-0.6-0.18-0.93
				c0-0.34,0.06-0.65,0.18-0.94s0.29-0.54,0.51-0.76s0.47-0.4,0.76-0.52S569.95,311.6,570.29,311.6z"/>
			<path d="M597.9,326.89c0,0.43-0.01,0.8-0.02,1.09s-0.03,0.57-0.05,0.83h-12.39c0,1.8,0.5,3.19,1.51,4.16s2.46,1.45,4.36,1.45
				c0.52,0,1.03-0.02,1.55-0.06s1.01-0.1,1.49-0.17s0.94-0.15,1.38-0.24s0.85-0.18,1.22-0.29v2.51c-0.83,0.23-1.77,0.42-2.82,0.57
				s-2.14,0.22-3.26,0.22c-1.51,0-2.81-0.21-3.9-0.62s-1.98-1-2.68-1.78s-1.21-1.73-1.55-2.87s-0.5-2.41-0.5-3.84
				c0-1.24,0.18-2.42,0.54-3.52s0.88-2.08,1.56-2.92s1.53-1.5,2.52-2s2.13-0.74,3.39-0.74c1.23,0,2.32,0.19,3.27,0.58
				s1.75,0.93,2.4,1.64s1.14,1.57,1.48,2.58S597.9,325.64,597.9,326.89z M594.72,326.45c0.04-0.79-0.04-1.5-0.23-2.15
				s-0.48-1.21-0.87-1.68s-0.88-0.83-1.47-1.1s-1.27-0.4-2.04-0.4c-0.67,0-1.28,0.13-1.83,0.39s-1.03,0.62-1.42,1.09
				s-0.72,1.03-0.97,1.69s-0.4,1.38-0.46,2.16H594.72z"/>
			<path d="M619.14,319l-2.57,17.65h-3.71l-2.55-7.38l-0.51-1.79l-0.58,1.9l-2.44,7.28h-3.6L600.63,319h2.99l1.48,11.99l0.32,2.67
				l0.76-2.34l2.57-7.93h2.2l2.76,7.82l0.79,2.34l0.26-2.48l1.37-12.08H619.14z"/>
			<path d="M636.56,331.83c0,0.62-0.11,1.18-0.32,1.67s-0.5,0.93-0.86,1.31s-0.79,0.71-1.27,0.98s-0.99,0.49-1.54,0.67
				s-1.1,0.3-1.68,0.39s-1.14,0.12-1.69,0.12c-1.2,0-2.29-0.05-3.3-0.16s-1.98-0.28-2.94-0.51v-2.81c1.03,0.29,2.06,0.52,3.08,0.67
				s2.03,0.23,3.04,0.23c1.46,0,2.55-0.2,3.25-0.6s1.05-0.97,1.05-1.71c0-0.32-0.06-0.6-0.17-0.85s-0.31-0.49-0.61-0.72
				s-0.75-0.47-1.36-0.71s-1.46-0.53-2.52-0.84c-0.8-0.23-1.53-0.5-2.21-0.8s-1.26-0.65-1.75-1.06s-0.88-0.89-1.16-1.44
				s-0.42-1.2-0.42-1.95c0-0.49,0.11-1.03,0.34-1.62s0.62-1.13,1.17-1.63s1.29-0.92,2.23-1.26s2.11-0.5,3.52-0.5
				c0.69,0,1.46,0.04,2.3,0.11s1.72,0.21,2.64,0.4v2.72c-0.96-0.23-1.87-0.41-2.73-0.52s-1.61-0.17-2.24-0.17
				c-0.76,0-1.4,0.06-1.92,0.18s-0.94,0.28-1.27,0.48s-0.55,0.45-0.69,0.72s-0.21,0.57-0.21,0.89s0.06,0.6,0.18,0.86
				s0.35,0.51,0.69,0.75s0.8,0.48,1.4,0.72s1.38,0.5,2.34,0.78c1.04,0.3,1.92,0.62,2.64,0.96s1.29,0.71,1.74,1.12
				s0.76,0.87,0.96,1.39S636.56,331.18,636.56,331.83z"/>
			<path d="M656.56,311.81l-12.06,28.62h-2.92l12.06-28.62H656.56z"/>
			<path d="M676.14,331.83c0,0.62-0.11,1.18-0.32,1.67s-0.5,0.93-0.86,1.31s-0.79,0.71-1.27,0.98s-0.99,0.49-1.54,0.67
				s-1.1,0.3-1.68,0.39s-1.14,0.12-1.69,0.12c-1.2,0-2.29-0.05-3.3-0.16s-1.98-0.28-2.94-0.51v-2.81c1.03,0.29,2.06,0.52,3.08,0.67
				s2.03,0.23,3.04,0.23c1.46,0,2.55-0.2,3.25-0.6s1.05-0.97,1.05-1.71c0-0.32-0.06-0.6-0.17-0.85s-0.31-0.49-0.61-0.72
				s-0.75-0.47-1.36-0.71s-1.46-0.53-2.52-0.84c-0.8-0.23-1.53-0.5-2.21-0.8s-1.26-0.65-1.75-1.06s-0.88-0.89-1.16-1.44
				s-0.42-1.2-0.42-1.95c0-0.49,0.11-1.03,0.34-1.62s0.62-1.13,1.17-1.63s1.29-0.92,2.23-1.26s2.11-0.5,3.52-0.5
				c0.69,0,1.46,0.04,2.3,0.11s1.72,0.21,2.64,0.4v2.72c-0.96-0.23-1.87-0.41-2.73-0.52s-1.61-0.17-2.24-0.17
				c-0.76,0-1.4,0.06-1.92,0.18s-0.94,0.28-1.27,0.48s-0.55,0.45-0.69,0.72s-0.21,0.57-0.21,0.89s0.06,0.6,0.18,0.86
				s0.35,0.51,0.69,0.75s0.8,0.48,1.4,0.72s1.38,0.5,2.34,0.78c1.04,0.3,1.92,0.62,2.64,0.96s1.29,0.71,1.74,1.12
				s0.76,0.87,0.96,1.39S676.14,331.18,676.14,331.83z"/>
			<path d="M696.87,326.89c0,0.43-0.01,0.8-0.02,1.09s-0.03,0.57-0.05,0.83H684.4c0,1.8,0.5,3.19,1.51,4.16s2.46,1.45,4.36,1.45
				c0.52,0,1.03-0.02,1.55-0.06s1.01-0.1,1.49-0.17s0.94-0.15,1.38-0.24s0.85-0.18,1.22-0.29v2.51c-0.83,0.23-1.77,0.42-2.82,0.57
				s-2.14,0.22-3.26,0.22c-1.51,0-2.81-0.21-3.9-0.62s-1.98-1-2.68-1.78s-1.21-1.73-1.55-2.87s-0.5-2.41-0.5-3.84
				c0-1.24,0.18-2.42,0.54-3.52s0.88-2.08,1.56-2.92s1.53-1.5,2.52-2s2.13-0.74,3.39-0.74c1.23,0,2.32,0.19,3.27,0.58
				s1.75,0.93,2.4,1.64s1.14,1.57,1.48,2.58S696.87,325.64,696.87,326.89z M693.68,326.45c0.04-0.79-0.04-1.5-0.23-2.15
				s-0.48-1.21-0.87-1.68s-0.88-0.83-1.47-1.1s-1.27-0.4-2.04-0.4c-0.67,0-1.28,0.13-1.83,0.39s-1.03,0.62-1.42,1.09
				s-0.72,1.03-0.97,1.69s-0.4,1.38-0.46,2.16H693.68z"/>
			<path d="M713.09,336.65l-0.07-2.37c-0.96,0.95-1.94,1.63-2.93,2.06s-2.03,0.63-3.12,0.63c-1.01,0-1.87-0.13-2.58-0.39
				s-1.3-0.61-1.77-1.06s-0.8-0.98-1.02-1.59s-0.33-1.27-0.33-1.99c0-1.77,0.66-3.16,1.98-4.16s3.27-1.5,5.84-1.5h3.66v-1.55
				c0-1.04-0.33-1.88-1-2.5s-1.69-0.94-3.06-0.94c-1,0-1.98,0.11-2.94,0.33s-1.97,0.54-3,0.95v-2.76c0.39-0.14,0.82-0.28,1.29-0.41
				s0.98-0.25,1.5-0.36s1.08-0.19,1.65-0.25s1.15-0.1,1.74-0.1c1.07,0,2.03,0.12,2.88,0.35s1.58,0.59,2.17,1.07s1.05,1.08,1.36,1.81
				s0.47,1.58,0.47,2.57v12.16H713.09z M712.76,328.62h-3.88c-0.76,0-1.42,0.08-1.97,0.23s-1,0.37-1.35,0.65s-0.61,0.62-0.78,1.01
				s-0.25,0.83-0.25,1.33c0,0.34,0.05,0.67,0.16,0.98s0.28,0.59,0.51,0.83s0.54,0.43,0.91,0.57s0.83,0.21,1.37,0.21
				c0.7,0,1.51-0.21,2.42-0.64s1.87-1.1,2.87-2.03V328.62z"/>
			<path d="M722.27,319h2.79l0.09,3.25c1.04-1.25,2.07-2.16,3.08-2.72s2.04-0.84,3.07-0.84c1.83,0,3.21,0.59,4.16,1.78
				s1.38,2.94,1.31,5.27h-3.09c0.04-1.55-0.19-2.67-0.68-3.37s-1.2-1.05-2.14-1.05c-0.41,0-0.82,0.07-1.24,0.22s-0.84,0.38-1.28,0.7
				s-0.91,0.74-1.4,1.24s-1.02,1.11-1.58,1.83v11.34h-3.09V319z"/>
			<path d="M755.05,336c-0.8,0.3-1.61,0.53-2.45,0.68s-1.7,0.22-2.59,0.22c-2.79,0-4.94-0.76-6.44-2.27s-2.26-3.72-2.26-6.63
				c0-1.39,0.22-2.66,0.65-3.8s1.04-2.11,1.83-2.92s1.72-1.43,2.81-1.87s2.29-0.66,3.6-0.66c0.91,0,1.77,0.06,2.57,0.19
				s1.56,0.34,2.29,0.63v2.92c-0.76-0.4-1.54-0.69-2.33-0.87s-1.61-0.27-2.45-0.27c-0.79,0-1.53,0.15-2.22,0.45
				s-1.31,0.73-1.84,1.29s-0.94,1.25-1.25,2.06s-0.46,1.72-0.46,2.74c0,2.13,0.52,3.73,1.56,4.79s2.48,1.59,4.32,1.59
				c0.83,0,1.64-0.09,2.42-0.28s1.53-0.47,2.26-0.84V336z"/>
			<path d="M775.32,336.65h-3.06v-11.27c0-1.36-0.25-2.38-0.76-3.05s-1.24-1.01-2.19-1.01c-0.41,0-0.79,0.06-1.15,0.17
				s-0.73,0.3-1.12,0.58s-0.81,0.65-1.27,1.12s-0.98,1.05-1.58,1.76v11.71h-3.06v-24.84h3.06V319l-0.11,2.78
				c0.48-0.57,0.95-1.06,1.42-1.45s0.93-0.71,1.39-0.96s0.93-0.42,1.42-0.53s0.98-0.16,1.49-0.16c1.76,0,3.12,0.54,4.08,1.61
				s1.44,2.69,1.44,4.84V336.65z"/>
			<path d="M787.87,331.11c0.4,0,0.78,0.08,1.13,0.23s0.67,0.36,0.93,0.63s0.47,0.58,0.62,0.94s0.23,0.74,0.23,1.15
				c0,0.4-0.08,0.77-0.23,1.13s-0.36,0.66-0.62,0.92s-0.57,0.47-0.93,0.62s-0.74,0.23-1.13,0.23c-0.41,0-0.79-0.08-1.14-0.23
				s-0.66-0.36-0.92-0.62s-0.47-0.57-0.62-0.92s-0.23-0.73-0.23-1.13c0-0.41,0.08-0.79,0.23-1.15s0.36-0.67,0.62-0.94
				s0.57-0.48,0.92-0.63S787.46,331.11,787.87,331.11z"/>
			<path d="M815.8,327.51c0,1.57-0.22,2.94-0.66,4.11s-1.05,2.14-1.82,2.92s-1.69,1.35-2.74,1.74s-2.2,0.58-3.43,0.58
				c-0.56,0-1.12-0.03-1.68-0.09s-1.12-0.16-1.7-0.3v7.38h-3.06V319h2.72l0.19,2.95c0.88-1.21,1.82-2.05,2.81-2.54
				s2.07-0.73,3.23-0.73c1.01,0,1.89,0.21,2.65,0.63s1.4,1.02,1.92,1.78s0.9,1.69,1.16,2.78S815.8,326.17,815.8,327.51z
				 M812.67,327.65c0-0.93-0.07-1.78-0.2-2.55s-0.35-1.44-0.64-1.99s-0.67-0.98-1.13-1.29s-1-0.47-1.63-0.47
				c-0.39,0-0.78,0.06-1.18,0.18s-0.81,0.33-1.24,0.62s-0.88,0.67-1.35,1.14s-0.98,1.06-1.52,1.77v8.56
				c0.56,0.23,1.15,0.42,1.78,0.55s1.23,0.2,1.83,0.2c1.65,0,2.95-0.56,3.88-1.68S812.67,329.9,812.67,327.65z"/>
			<path d="M834.7,336.65h-3.06v-11.27c0-1.36-0.25-2.38-0.76-3.05s-1.24-1.01-2.19-1.01c-0.41,0-0.79,0.06-1.15,0.17
				s-0.73,0.3-1.12,0.58s-0.81,0.65-1.27,1.12s-0.98,1.05-1.58,1.76v11.71h-3.06v-24.84h3.06V319l-0.11,2.78
				c0.48-0.57,0.95-1.06,1.42-1.45s0.93-0.71,1.39-0.96s0.93-0.42,1.42-0.53s0.98-0.16,1.49-0.16c1.76,0,3.12,0.54,4.08,1.61
				s1.44,2.69,1.44,4.84V336.65z"/>
			<path d="M855.39,327.51c0,1.57-0.22,2.94-0.66,4.11s-1.05,2.14-1.82,2.92s-1.69,1.35-2.74,1.74s-2.2,0.58-3.43,0.58
				c-0.56,0-1.12-0.03-1.68-0.09s-1.12-0.16-1.7-0.3v7.38h-3.06V319h2.72l0.19,2.95c0.88-1.21,1.82-2.05,2.81-2.54
				s2.07-0.73,3.23-0.73c1.01,0,1.89,0.21,2.65,0.63s1.4,1.02,1.92,1.78s0.9,1.69,1.16,2.78S855.39,326.17,855.39,327.51z
				 M852.26,327.65c0-0.93-0.07-1.78-0.2-2.55s-0.35-1.44-0.64-1.99s-0.67-0.98-1.13-1.29s-1-0.47-1.63-0.47
				c-0.39,0-0.78,0.06-1.18,0.18s-0.81,0.33-1.24,0.62s-0.88,0.67-1.35,1.14s-0.98,1.06-1.52,1.77v8.56
				c0.56,0.23,1.15,0.42,1.78,0.55s1.23,0.2,1.83,0.2c1.65,0,2.95-0.56,3.88-1.68S852.26,329.9,852.26,327.65z"/>
		</g>
		<rect x="492.5" y="280" class="st2" width="380" height="90"/>
		<g>
			<path d="M146.14,737.15c0.4,0,0.78,0.08,1.13,0.23s0.67,0.36,0.93,0.63s0.47,0.58,0.62,0.94s0.23,0.74,0.23,1.15
				c0,0.4-0.08,0.77-0.23,1.13s-0.36,0.66-0.62,0.92s-0.57,0.47-0.93,0.62s-0.74,0.23-1.13,0.23c-0.41,0-0.79-0.08-1.14-0.23
				s-0.66-0.36-0.92-0.62s-0.47-0.57-0.62-0.92s-0.23-0.73-0.23-1.13c0-0.41,0.08-0.79,0.23-1.15s0.36-0.67,0.62-0.94
				s0.57-0.48,0.92-0.63S145.73,737.15,146.14,737.15z"/>
			<path d="M173.17,717.85l-12.06,28.62h-2.92l12.06-28.62H173.17z"/>
			<path d="M177.13,725.04h3.48l4.32,11.67l0.93,2.85l0.97-2.92l4.29-11.6h3.36l-6.93,17.65h-3.52L177.13,725.04z"/>
			<path d="M204.59,727.57h-5.22v-2.53h8.31v15.1h5.26v2.55h-14.15v-2.55h5.8V727.57z M205.66,717.64c0.34,0,0.66,0.06,0.95,0.18
				s0.55,0.3,0.76,0.52s0.39,0.48,0.51,0.76s0.18,0.6,0.18,0.94c0,0.33-0.06,0.64-0.18,0.93s-0.29,0.55-0.51,0.77
				s-0.47,0.4-0.76,0.52s-0.61,0.18-0.95,0.18s-0.66-0.06-0.95-0.18s-0.55-0.3-0.76-0.52s-0.39-0.48-0.51-0.77s-0.18-0.6-0.18-0.93
				c0-0.34,0.06-0.65,0.18-0.94s0.29-0.54,0.51-0.76s0.47-0.4,0.76-0.52S205.32,717.64,205.66,717.64z"/>
			<path d="M233.27,732.94c0,0.43-0.01,0.8-0.02,1.09s-0.03,0.57-0.05,0.83h-12.39c0,1.8,0.5,3.19,1.51,4.16s2.46,1.45,4.36,1.45
				c0.52,0,1.03-0.02,1.55-0.06s1.01-0.1,1.49-0.17s0.94-0.15,1.38-0.24s0.85-0.18,1.22-0.29v2.51c-0.83,0.23-1.77,0.42-2.82,0.57
				s-2.14,0.22-3.26,0.22c-1.51,0-2.81-0.21-3.9-0.62s-1.98-1-2.68-1.78s-1.21-1.73-1.55-2.87s-0.5-2.41-0.5-3.84
				c0-1.24,0.18-2.42,0.54-3.52s0.88-2.08,1.56-2.92s1.53-1.5,2.52-2s2.13-0.74,3.39-0.74c1.23,0,2.32,0.19,3.27,0.58
				s1.75,0.93,2.4,1.64s1.14,1.57,1.48,2.58S233.27,731.68,233.27,732.94z M230.09,732.5c0.04-0.79-0.04-1.5-0.23-2.15
				s-0.48-1.21-0.87-1.68s-0.88-0.83-1.47-1.1s-1.27-0.4-2.04-0.4c-0.67,0-1.28,0.13-1.83,0.39s-1.03,0.62-1.42,1.09
				s-0.72,1.03-0.97,1.69s-0.4,1.38-0.46,2.16H230.09z"/>
			<path d="M254.51,725.04l-2.57,17.65h-3.71l-2.55-7.38l-0.51-1.79l-0.58,1.9l-2.44,7.28h-3.6L236,725.04h2.99l1.48,11.99
				l0.32,2.67l0.76-2.34l2.57-7.93h2.2l2.76,7.82l0.79,2.34l0.26-2.48l1.37-12.08H254.51z"/>
			<path d="M271.93,737.88c0,0.62-0.11,1.18-0.32,1.67s-0.5,0.93-0.86,1.31s-0.79,0.71-1.27,0.98s-0.99,0.49-1.54,0.67
				s-1.1,0.3-1.68,0.39s-1.14,0.12-1.69,0.12c-1.2,0-2.29-0.05-3.3-0.16s-1.98-0.28-2.94-0.51v-2.81c1.03,0.29,2.06,0.52,3.08,0.67
				s2.03,0.23,3.04,0.23c1.46,0,2.55-0.2,3.25-0.6s1.05-0.97,1.05-1.71c0-0.32-0.06-0.6-0.17-0.85s-0.31-0.49-0.61-0.72
				s-0.75-0.47-1.36-0.71s-1.46-0.53-2.52-0.84c-0.8-0.23-1.53-0.5-2.21-0.8s-1.26-0.65-1.75-1.06s-0.88-0.89-1.16-1.44
				s-0.42-1.2-0.42-1.95c0-0.49,0.11-1.03,0.34-1.62s0.62-1.13,1.17-1.63s1.29-0.92,2.23-1.26s2.11-0.5,3.52-0.5
				c0.69,0,1.46,0.04,2.3,0.11s1.72,0.21,2.64,0.4v2.72c-0.96-0.23-1.87-0.41-2.73-0.52s-1.61-0.17-2.24-0.17
				c-0.76,0-1.4,0.06-1.92,0.18s-0.94,0.28-1.27,0.48s-0.55,0.45-0.69,0.72s-0.21,0.57-0.21,0.89s0.06,0.6,0.18,0.86
				s0.35,0.51,0.69,0.75s0.8,0.48,1.4,0.72s1.38,0.5,2.34,0.78c1.04,0.3,1.92,0.62,2.64,0.96s1.29,0.71,1.74,1.12
				s0.76,0.87,0.96,1.39S271.93,737.22,271.93,737.88z"/>
			<path d="M291.93,717.85l-12.06,28.62h-2.92l12.06-28.62H291.93z"/>
			<path d="M311.76,742.45c-0.69,0.18-1.41,0.3-2.14,0.38s-1.49,0.11-2.25,0.11c-2.21,0-3.87-0.5-4.96-1.5s-1.63-2.54-1.63-4.61
				v-9.21h-4.94v-2.57h4.94v-4.85l3.06-0.79v5.64h7.93v2.57h-7.93v8.96c0,1.27,0.34,2.21,1.01,2.84s1.67,0.94,2.98,0.94
				c0.56,0,1.18-0.04,1.85-0.13s1.37-0.23,2.09-0.41V742.45z"/>
			<path d="M332.7,733.73c0,1.37-0.19,2.63-0.58,3.77s-0.94,2.12-1.67,2.94s-1.61,1.45-2.65,1.9s-2.23,0.68-3.55,0.68
				c-1.27,0-2.4-0.2-3.4-0.59s-1.85-0.97-2.55-1.73s-1.23-1.71-1.6-2.83s-0.55-2.42-0.55-3.88c0-1.37,0.19-2.62,0.58-3.75
				s0.94-2.1,1.67-2.92s1.61-1.45,2.65-1.9s2.23-0.68,3.55-0.68c1.27,0,2.4,0.2,3.4,0.59s1.85,0.97,2.55,1.72s1.23,1.7,1.6,2.82
				S332.7,732.27,332.7,733.73z M329.57,733.87c0-1.09-0.12-2.04-0.36-2.86s-0.58-1.49-1.03-2.04s-0.99-0.96-1.63-1.23
				s-1.35-0.41-2.14-0.41c-0.91,0-1.7,0.18-2.35,0.54s-1.18,0.83-1.6,1.43s-0.72,1.29-0.91,2.08s-0.29,1.62-0.29,2.49
				c0,1.09,0.12,2.04,0.36,2.87s0.58,1.5,1.03,2.05s0.98,0.96,1.62,1.23s1.35,0.41,2.14,0.41c0.91,0,1.7-0.18,2.35-0.54
				s1.18-0.83,1.6-1.43s0.72-1.29,0.91-2.08S329.57,734.75,329.57,733.87z"/>
			<path d="M336.23,734.24c0-1.5,0.21-2.83,0.62-4s0.99-2.15,1.75-2.95s1.66-1.41,2.72-1.83s2.24-0.62,3.54-0.62
				c0.56,0,1.12,0.04,1.66,0.11s1.08,0.18,1.61,0.33v-7.42h3.08v24.84h-2.74l-0.11-3.34c-0.86,1.24-1.78,2.16-2.78,2.76
				s-2.07,0.9-3.23,0.9c-1.01,0-1.9-0.21-2.66-0.63s-1.41-1.02-1.92-1.78s-0.89-1.69-1.15-2.77S336.23,735.55,336.23,734.24z
				 M339.36,734.04c0,2.13,0.31,3.72,0.94,4.77s1.51,1.57,2.66,1.57c0.77,0,1.59-0.35,2.45-1.04s1.77-1.72,2.72-3.08v-8.19
				c-0.5-0.23-1.06-0.41-1.67-0.54s-1.21-0.18-1.81-0.18c-1.66,0-2.96,0.54-3.89,1.62S339.36,731.75,339.36,734.04z"/>
			<path d="M372.28,733.73c0,1.37-0.19,2.63-0.58,3.77s-0.94,2.12-1.67,2.94s-1.61,1.45-2.65,1.9s-2.23,0.68-3.55,0.68
				c-1.27,0-2.4-0.2-3.4-0.59s-1.85-0.97-2.55-1.73s-1.23-1.71-1.6-2.83s-0.55-2.42-0.55-3.88c0-1.37,0.19-2.62,0.58-3.75
				s0.94-2.1,1.67-2.92s1.61-1.45,2.65-1.9s2.23-0.68,3.55-0.68c1.27,0,2.4,0.2,3.4,0.59s1.85,0.97,2.55,1.72s1.23,1.7,1.6,2.82
				S372.28,732.27,372.28,733.73z M369.15,733.87c0-1.09-0.12-2.04-0.36-2.86s-0.58-1.49-1.03-2.04s-0.99-0.96-1.63-1.23
				s-1.35-0.41-2.14-0.41c-0.91,0-1.7,0.18-2.35,0.54s-1.18,0.83-1.6,1.43s-0.72,1.29-0.91,2.08s-0.29,1.62-0.29,2.49
				c0,1.09,0.12,2.04,0.36,2.87s0.58,1.5,1.03,2.05s0.98,0.96,1.62,1.23s1.35,0.41,2.14,0.41c0.91,0,1.7-0.18,2.35-0.54
				s1.18-0.83,1.6-1.43s0.72-1.29,0.91-2.08S369.15,734.75,369.15,733.87z"/>
			<path d="M383.65,737.15c0.4,0,0.78,0.08,1.13,0.23s0.67,0.36,0.93,0.63s0.47,0.58,0.62,0.94s0.23,0.74,0.23,1.15
				c0,0.4-0.08,0.77-0.23,1.13s-0.36,0.66-0.62,0.92s-0.57,0.47-0.93,0.62s-0.74,0.23-1.13,0.23c-0.41,0-0.79-0.08-1.14-0.23
				s-0.66-0.36-0.92-0.62s-0.47-0.57-0.62-0.92s-0.23-0.73-0.23-1.13c0-0.41,0.08-0.79,0.23-1.15s0.36-0.67,0.62-0.94
				s0.57-0.48,0.92-0.63S383.24,737.15,383.65,737.15z"/>
			<path d="M411.59,733.55c0,1.57-0.22,2.94-0.66,4.11s-1.05,2.14-1.82,2.92s-1.69,1.35-2.74,1.74s-2.2,0.58-3.43,0.58
				c-0.56,0-1.12-0.03-1.68-0.09s-1.12-0.16-1.7-0.3v7.38h-3.06v-24.86h2.72l0.19,2.95c0.88-1.21,1.82-2.05,2.81-2.54
				s2.07-0.73,3.23-0.73c1.01,0,1.89,0.21,2.65,0.63s1.4,1.02,1.92,1.78s0.9,1.69,1.16,2.78S411.59,732.21,411.59,733.55z
				 M408.46,733.69c0-0.93-0.07-1.78-0.2-2.55s-0.35-1.44-0.64-1.99s-0.67-0.98-1.13-1.29s-1-0.47-1.63-0.47
				c-0.39,0-0.78,0.06-1.18,0.18s-0.81,0.33-1.24,0.62s-0.88,0.67-1.35,1.14s-0.98,1.06-1.52,1.77v8.56
				c0.56,0.23,1.15,0.42,1.78,0.55s1.23,0.2,1.83,0.2c1.65,0,2.95-0.56,3.88-1.68S408.46,735.94,408.46,733.69z"/>
			<path d="M430.48,742.69h-3.06v-11.27c0-1.36-0.25-2.38-0.76-3.05s-1.24-1.01-2.19-1.01c-0.41,0-0.79,0.06-1.15,0.17
				s-0.73,0.3-1.12,0.58s-0.81,0.65-1.27,1.12s-0.98,1.05-1.58,1.76v11.71h-3.06v-24.84h3.06v7.19l-0.11,2.78
				c0.48-0.57,0.95-1.06,1.42-1.45s0.93-0.71,1.39-0.96s0.93-0.42,1.42-0.53s0.98-0.16,1.49-0.16c1.76,0,3.12,0.54,4.08,1.61
				s1.44,2.69,1.44,4.84V742.69z"/>
			<path d="M451.17,733.55c0,1.57-0.22,2.94-0.66,4.11s-1.05,2.14-1.82,2.92s-1.69,1.35-2.74,1.74s-2.2,0.58-3.43,0.58
				c-0.56,0-1.12-0.03-1.68-0.09s-1.12-0.16-1.7-0.3v7.38h-3.06v-24.86h2.72l0.19,2.95c0.88-1.21,1.82-2.05,2.81-2.54
				s2.07-0.73,3.23-0.73c1.01,0,1.89,0.21,2.65,0.63s1.4,1.02,1.92,1.78s0.9,1.69,1.16,2.78S451.17,732.21,451.17,733.55z
				 M448.04,733.69c0-0.93-0.07-1.78-0.2-2.55s-0.35-1.44-0.64-1.99s-0.67-0.98-1.13-1.29s-1-0.47-1.63-0.47
				c-0.39,0-0.78,0.06-1.18,0.18s-0.81,0.33-1.24,0.62s-0.88,0.67-1.35,1.14s-0.98,1.06-1.52,1.77v8.56
				c0.56,0.23,1.15,0.42,1.78,0.55s1.23,0.2,1.83,0.2c1.65,0,2.95-0.56,3.88-1.68S448.04,735.94,448.04,733.69z"/>
		</g>
		<rect x="95.5" y="689" class="st2" width="400" height="90"/>
		<g>
			<path d="M859.94,735.93c0.4,0,0.78,0.08,1.13,0.23s0.67,0.36,0.93,0.63s0.47,0.58,0.62,0.94s0.23,0.74,0.23,1.15
				c0,0.4-0.08,0.77-0.23,1.13s-0.36,0.66-0.62,0.92s-0.57,0.47-0.93,0.62s-0.74,0.23-1.13,0.23c-0.41,0-0.79-0.08-1.14-0.23
				s-0.66-0.36-0.92-0.62s-0.47-0.57-0.62-0.92s-0.23-0.73-0.23-1.13c0-0.41,0.08-0.79,0.23-1.15s0.36-0.67,0.62-0.94
				s0.57-0.48,0.92-0.63S859.53,735.93,859.94,735.93z"/>
			<path d="M886.97,716.63l-12.06,28.62H872l12.06-28.62H886.97z"/>
			<path d="M890.93,723.82h3.48l4.32,11.67l0.93,2.85l0.97-2.92l4.29-11.6h3.36l-6.93,17.65h-3.52L890.93,723.82z"/>
			<path d="M918.38,726.35h-5.22v-2.53h8.31v15.1h5.26v2.55h-14.15v-2.55h5.8V726.35z M919.46,716.42c0.34,0,0.66,0.06,0.95,0.18
				s0.55,0.3,0.76,0.52s0.39,0.48,0.51,0.76s0.18,0.6,0.18,0.94c0,0.33-0.06,0.64-0.18,0.93s-0.29,0.55-0.51,0.77
				s-0.47,0.4-0.76,0.52s-0.61,0.18-0.95,0.18s-0.66-0.06-0.95-0.18s-0.55-0.3-0.76-0.52s-0.39-0.48-0.51-0.77s-0.18-0.6-0.18-0.93
				c0-0.34,0.06-0.65,0.18-0.94s0.29-0.54,0.51-0.76s0.47-0.4,0.76-0.52S919.12,716.42,919.46,716.42z"/>
			<path d="M947.07,731.71c0,0.43-0.01,0.8-0.02,1.09s-0.03,0.57-0.05,0.83h-12.39c0,1.8,0.5,3.19,1.51,4.16s2.46,1.45,4.36,1.45
				c0.52,0,1.03-0.02,1.55-0.06s1.01-0.1,1.49-0.17s0.94-0.15,1.38-0.24s0.85-0.18,1.22-0.29v2.51c-0.83,0.23-1.77,0.42-2.82,0.57
				s-2.14,0.22-3.26,0.22c-1.51,0-2.81-0.21-3.9-0.62s-1.98-1-2.68-1.78s-1.21-1.73-1.55-2.87s-0.5-2.41-0.5-3.84
				c0-1.24,0.18-2.42,0.54-3.52s0.88-2.08,1.56-2.92s1.53-1.5,2.52-2s2.13-0.74,3.39-0.74c1.23,0,2.32,0.19,3.27,0.58
				s1.75,0.93,2.4,1.64s1.14,1.57,1.48,2.58S947.07,730.46,947.07,731.71z M943.89,731.27c0.04-0.79-0.04-1.5-0.23-2.15
				s-0.48-1.21-0.87-1.68s-0.88-0.83-1.47-1.1s-1.27-0.4-2.04-0.4c-0.67,0-1.28,0.13-1.83,0.39s-1.03,0.62-1.42,1.09
				s-0.72,1.03-0.97,1.69s-0.4,1.38-0.46,2.16H943.89z"/>
			<path d="M968.31,723.82l-2.57,17.65h-3.71l-2.55-7.38l-0.51-1.79l-0.58,1.9l-2.44,7.28h-3.6l-2.55-17.65h2.99l1.48,11.99
				l0.32,2.67l0.76-2.34l2.57-7.93h2.2l2.76,7.82l0.79,2.34l0.26-2.48l1.37-12.08H968.31z"/>
			<path d="M985.73,736.65c0,0.62-0.11,1.18-0.32,1.67s-0.5,0.93-0.86,1.31s-0.79,0.71-1.27,0.98s-0.99,0.49-1.54,0.67
				s-1.1,0.3-1.68,0.39s-1.14,0.12-1.69,0.12c-1.2,0-2.29-0.05-3.3-0.16s-1.98-0.28-2.94-0.51v-2.81c1.03,0.29,2.06,0.52,3.08,0.67
				s2.03,0.23,3.04,0.23c1.46,0,2.55-0.2,3.25-0.6s1.05-0.97,1.05-1.71c0-0.32-0.06-0.6-0.17-0.85s-0.31-0.49-0.61-0.72
				s-0.75-0.47-1.36-0.71s-1.46-0.53-2.52-0.84c-0.8-0.23-1.53-0.5-2.21-0.8s-1.26-0.65-1.75-1.06s-0.88-0.89-1.16-1.44
				s-0.42-1.2-0.42-1.95c0-0.49,0.11-1.03,0.34-1.62s0.62-1.13,1.17-1.63s1.29-0.92,2.23-1.26s2.11-0.5,3.52-0.5
				c0.69,0,1.46,0.04,2.3,0.11s1.72,0.21,2.64,0.4v2.72c-0.96-0.23-1.87-0.41-2.73-0.52s-1.61-0.17-2.24-0.17
				c-0.76,0-1.4,0.06-1.92,0.18s-0.94,0.28-1.27,0.48s-0.55,0.45-0.69,0.72s-0.21,0.57-0.21,0.89s0.06,0.6,0.18,0.86
				s0.35,0.51,0.69,0.75s0.8,0.48,1.4,0.72s1.38,0.5,2.34,0.78c1.04,0.3,1.92,0.62,2.64,0.96s1.29,0.71,1.74,1.12
				s0.76,0.87,0.96,1.39S985.73,736,985.73,736.65z"/>
			<path d="M1005.73,716.63l-12.06,28.62h-2.92l12.06-28.62H1005.73z"/>
			<path d="M1017.35,719.14h-5.22v-2.51h8.31v22.29h5.26v2.55h-14.15v-2.55h5.8V719.14z"/>
			<path d="M1037.14,726.35h-5.22v-2.53h8.31v15.1h5.26v2.55h-14.15v-2.55h5.8V726.35z M1038.21,716.42c0.34,0,0.66,0.06,0.95,0.18
				s0.55,0.3,0.76,0.52s0.39,0.48,0.51,0.76s0.18,0.6,0.18,0.94c0,0.33-0.06,0.64-0.18,0.93s-0.29,0.55-0.51,0.77
				s-0.47,0.4-0.76,0.52s-0.61,0.18-0.95,0.18s-0.66-0.06-0.95-0.18s-0.55-0.3-0.76-0.52s-0.39-0.48-0.51-0.77s-0.18-0.6-0.18-0.93
				c0-0.34,0.06-0.65,0.18-0.94s0.29-0.54,0.51-0.76s0.47-0.4,0.76-0.52S1037.87,716.42,1038.21,716.42z"/>
			<path d="M1066,732.33c0,1.46-0.2,2.77-0.61,3.93s-0.98,2.13-1.72,2.94s-1.65,1.42-2.72,1.85s-2.27,0.64-3.6,0.64
				c-1.04,0-2.11-0.1-3.2-0.3s-2.17-0.52-3.23-0.95v-23.8h3.06v6.84l-0.14,3.27c0.88-1.18,1.82-2.02,2.82-2.5s2.08-0.73,3.23-0.73
				c1.01,0,1.89,0.21,2.65,0.63s1.4,1.02,1.92,1.78s0.9,1.69,1.16,2.78S1066,730.99,1066,732.33z M1062.88,732.47
				c0-0.93-0.07-1.78-0.2-2.55s-0.35-1.44-0.64-1.99s-0.67-0.98-1.13-1.29s-1-0.47-1.63-0.47c-0.39,0-0.78,0.06-1.18,0.18
				s-0.81,0.33-1.24,0.62s-0.88,0.67-1.35,1.14s-0.98,1.06-1.52,1.77v8.56c0.6,0.23,1.21,0.42,1.83,0.55s1.21,0.2,1.78,0.2
				c0.7,0,1.37-0.11,2.01-0.33s1.2-0.59,1.69-1.12s0.87-1.21,1.16-2.07S1062.88,733.75,1062.88,732.47z"/>
			<path d="M1071.44,723.82h2.79l0.09,3.25c1.04-1.25,2.07-2.16,3.08-2.72s2.04-0.84,3.07-0.84c1.83,0,3.21,0.59,4.16,1.78
				s1.38,2.94,1.31,5.27h-3.09c0.04-1.55-0.19-2.67-0.68-3.37s-1.2-1.05-2.14-1.05c-0.41,0-0.82,0.07-1.24,0.22s-0.84,0.38-1.28,0.7
				s-0.91,0.74-1.4,1.24s-1.02,1.11-1.58,1.83v11.34h-3.09V723.82z"/>
			<path d="M1101.85,741.47l-0.07-2.37c-0.96,0.95-1.94,1.63-2.93,2.06s-2.03,0.63-3.12,0.63c-1.01,0-1.87-0.13-2.58-0.39
				s-1.3-0.61-1.77-1.06s-0.8-0.98-1.02-1.59s-0.33-1.27-0.33-1.99c0-1.77,0.66-3.16,1.98-4.16s3.27-1.5,5.84-1.5h3.66v-1.55
				c0-1.04-0.33-1.88-1-2.5s-1.69-0.94-3.06-0.94c-1,0-1.98,0.11-2.94,0.33s-1.97,0.54-3,0.95v-2.76c0.39-0.14,0.82-0.28,1.29-0.41
				s0.98-0.25,1.5-0.36s1.08-0.19,1.65-0.25s1.15-0.1,1.74-0.1c1.07,0,2.03,0.12,2.88,0.35s1.58,0.59,2.17,1.07s1.05,1.08,1.36,1.81
				s0.47,1.58,0.47,2.57v12.16H1101.85z M1101.51,733.43h-3.88c-0.76,0-1.42,0.08-1.97,0.23s-1,0.37-1.35,0.65s-0.61,0.62-0.78,1.01
				s-0.25,0.83-0.25,1.33c0,0.34,0.05,0.67,0.16,0.98s0.28,0.59,0.51,0.83s0.54,0.43,0.91,0.57s0.83,0.21,1.37,0.21
				c0.7,0,1.51-0.21,2.42-0.64s1.87-1.1,2.87-2.03V733.43z"/>
			<path d="M1111.02,723.82h2.79l0.09,3.25c1.04-1.25,2.07-2.16,3.08-2.72s2.04-0.84,3.07-0.84c1.83,0,3.21,0.59,4.16,1.78
				s1.38,2.94,1.31,5.27h-3.09c0.04-1.55-0.19-2.67-0.68-3.37s-1.2-1.05-2.14-1.05c-0.41,0-0.82,0.07-1.24,0.22s-0.84,0.38-1.28,0.7
				s-0.91,0.74-1.4,1.24s-1.02,1.11-1.58,1.83v11.34h-3.09V723.82z"/>
			<path d="M1145.79,723.82l-6.01,15.79c-0.62,1.61-1.26,2.99-1.92,4.15s-1.39,2.11-2.17,2.86s-1.65,1.29-2.58,1.64
				s-1.99,0.53-3.15,0.53c-0.3,0-0.58-0.01-0.83-0.02s-0.52-0.03-0.81-0.05v-2.78c0.26,0.04,0.54,0.07,0.84,0.1s0.63,0.04,0.97,0.04
				c0.56,0,1.09-0.08,1.57-0.25s0.95-0.43,1.38-0.8s0.85-0.85,1.25-1.43s0.79-1.29,1.16-2.13l-7.05-17.65h3.48l4.46,11.67l0.9,2.74
				l1.02-2.81l4.13-11.6H1145.79z"/>
			<path d="M1156.83,735.93c0.4,0,0.78,0.08,1.13,0.23s0.67,0.36,0.93,0.63s0.47,0.58,0.62,0.94s0.23,0.74,0.23,1.15
				c0,0.4-0.08,0.77-0.23,1.13s-0.36,0.66-0.62,0.92s-0.57,0.47-0.93,0.62s-0.74,0.23-1.13,0.23c-0.41,0-0.79-0.08-1.14-0.23
				s-0.66-0.36-0.92-0.62s-0.47-0.57-0.62-0.92s-0.23-0.73-0.23-1.13c0-0.41,0.08-0.79,0.23-1.15s0.36-0.67,0.62-0.94
				s0.57-0.48,0.92-0.63S1156.42,735.93,1156.83,735.93z"/>
			<path d="M1184.76,732.33c0,1.57-0.22,2.94-0.66,4.11s-1.05,2.14-1.82,2.92s-1.69,1.35-2.74,1.74s-2.2,0.58-3.43,0.58
				c-0.56,0-1.12-0.03-1.68-0.09s-1.12-0.16-1.7-0.3v7.38h-3.06v-24.86h2.72l0.19,2.95c0.88-1.21,1.82-2.05,2.81-2.54
				s2.07-0.73,3.23-0.73c1.01,0,1.89,0.21,2.65,0.63s1.4,1.02,1.92,1.78s0.9,1.69,1.16,2.78S1184.76,730.99,1184.76,732.33z
				 M1181.63,732.47c0-0.93-0.07-1.78-0.2-2.55s-0.35-1.44-0.64-1.99s-0.67-0.98-1.13-1.29s-1-0.47-1.63-0.47
				c-0.39,0-0.78,0.06-1.18,0.18s-0.81,0.33-1.24,0.62s-0.88,0.67-1.35,1.14s-0.98,1.06-1.52,1.77v8.56
				c0.56,0.23,1.15,0.42,1.78,0.55s1.23,0.2,1.83,0.2c1.65,0,2.95-0.56,3.88-1.68S1181.63,734.72,1181.63,732.47z"/>
			<path d="M1203.66,741.47h-3.06V730.2c0-1.36-0.25-2.38-0.76-3.05s-1.24-1.01-2.19-1.01c-0.41,0-0.79,0.06-1.15,0.17
				s-0.73,0.3-1.12,0.58s-0.81,0.65-1.27,1.12s-0.98,1.05-1.58,1.76v11.71h-3.06v-24.84h3.06v7.19l-0.11,2.78
				c0.48-0.57,0.95-1.06,1.42-1.45s0.93-0.71,1.39-0.96s0.93-0.42,1.42-0.53s0.98-0.16,1.49-0.16c1.76,0,3.12,0.54,4.08,1.61
				s1.44,2.69,1.44,4.84V741.47z"/>
			<path d="M1224.35,732.33c0,1.57-0.22,2.94-0.66,4.11s-1.05,2.14-1.82,2.92s-1.69,1.35-2.74,1.74s-2.2,0.58-3.43,0.58
				c-0.56,0-1.12-0.03-1.68-0.09s-1.12-0.16-1.7-0.3v7.38h-3.06v-24.86h2.72l0.19,2.95c0.88-1.21,1.82-2.05,2.81-2.54
				s2.07-0.73,3.23-0.73c1.01,0,1.89,0.21,2.65,0.63s1.4,1.02,1.92,1.78s0.9,1.69,1.16,2.78S1224.35,730.99,1224.35,732.33z
				 M1221.22,732.47c0-0.93-0.07-1.78-0.2-2.55s-0.35-1.44-0.64-1.99s-0.67-0.98-1.13-1.29s-1-0.47-1.63-0.47
				c-0.39,0-0.78,0.06-1.18,0.18s-0.81,0.33-1.24,0.62s-0.88,0.67-1.35,1.14s-0.98,1.06-1.52,1.77v8.56
				c0.56,0.23,1.15,0.42,1.78,0.55s1.23,0.2,1.83,0.2c1.65,0,2.95-0.56,3.88-1.68S1221.22,734.72,1221.22,732.47z"/>
		</g>
		<line class="st1" x1="266.5" y1="623" x2="266.5" y2="677"/>
		<line class="st1" x1="1063.5" y1="623" x2="1063.5" y2="677"/>
		<rect x="842.5" y="689" class="st2" width="400" height="90"/>
		<g>
			<path d="M132.12,516.74c0.4,0,0.78,0.08,1.13,0.23s0.67,0.36,0.93,0.63s0.47,0.58,0.62,0.94s0.23,0.74,0.23,1.15
				c0,0.4-0.08,0.77-0.23,1.13s-0.36,0.66-0.62,0.92s-0.57,0.47-0.93,0.62s-0.74,0.23-1.13,0.23c-0.41,0-0.79-0.08-1.14-0.23
				s-0.66-0.36-0.92-0.62s-0.47-0.57-0.62-0.92s-0.23-0.73-0.23-1.13c0-0.41,0.08-0.79,0.23-1.15s0.36-0.67,0.62-0.94
				s0.57-0.48,0.92-0.63S131.71,516.74,132.12,516.74z"/>
			<path d="M159.15,497.44l-12.06,28.62h-2.92l12.06-28.62H159.15z"/>
			<path d="M163.11,504.63h3.48l4.32,11.67l0.93,2.85l0.97-2.92l4.29-11.6h3.36l-6.93,17.65h-3.52L163.11,504.63z"/>
			<path d="M190.56,507.16h-5.22v-2.53h8.31v15.1h5.26v2.55h-14.15v-2.55h5.8V507.16z M191.64,497.23c0.34,0,0.66,0.06,0.95,0.18
				s0.55,0.3,0.76,0.52s0.39,0.48,0.51,0.76s0.18,0.6,0.18,0.94c0,0.33-0.06,0.64-0.18,0.93s-0.29,0.55-0.51,0.77
				s-0.47,0.4-0.76,0.52s-0.61,0.18-0.95,0.18s-0.66-0.06-0.95-0.18s-0.55-0.3-0.76-0.52s-0.39-0.48-0.51-0.77s-0.18-0.6-0.18-0.93
				c0-0.34,0.06-0.65,0.18-0.94s0.29-0.54,0.51-0.76s0.47-0.4,0.76-0.52S191.3,497.23,191.64,497.23z"/>
			<path d="M219.25,512.52c0,0.43-0.01,0.8-0.02,1.09s-0.03,0.57-0.05,0.83h-12.39c0,1.8,0.5,3.19,1.51,4.16s2.46,1.45,4.36,1.45
				c0.52,0,1.03-0.02,1.55-0.06s1.01-0.1,1.49-0.17s0.94-0.15,1.38-0.24s0.85-0.18,1.22-0.29v2.51c-0.83,0.23-1.77,0.42-2.82,0.57
				s-2.14,0.22-3.26,0.22c-1.51,0-2.81-0.21-3.9-0.62s-1.98-1-2.68-1.78s-1.21-1.73-1.55-2.87s-0.5-2.41-0.5-3.84
				c0-1.24,0.18-2.42,0.54-3.52s0.88-2.08,1.56-2.92s1.53-1.5,2.52-2s2.13-0.74,3.39-0.74c1.23,0,2.32,0.19,3.27,0.58
				s1.75,0.93,2.4,1.64s1.14,1.57,1.48,2.58S219.25,511.27,219.25,512.52z M216.07,512.08c0.04-0.79-0.04-1.5-0.23-2.15
				s-0.48-1.21-0.87-1.68s-0.88-0.83-1.47-1.1s-1.27-0.4-2.04-0.4c-0.67,0-1.28,0.13-1.83,0.39s-1.03,0.62-1.42,1.09
				s-0.72,1.03-0.97,1.69s-0.4,1.38-0.46,2.16H216.07z"/>
			<path d="M240.49,504.63l-2.57,17.65h-3.71l-2.55-7.38l-0.51-1.79l-0.58,1.9l-2.44,7.28h-3.6l-2.55-17.65h2.99l1.48,11.99
				l0.32,2.67l0.76-2.34l2.57-7.93h2.2l2.76,7.82l0.79,2.34l0.26-2.48l1.37-12.08H240.49z"/>
			<path d="M257.91,517.46c0,0.62-0.11,1.18-0.32,1.67s-0.5,0.93-0.86,1.31s-0.79,0.71-1.27,0.98s-0.99,0.49-1.54,0.67
				s-1.1,0.3-1.68,0.39s-1.14,0.12-1.69,0.12c-1.2,0-2.29-0.05-3.3-0.16s-1.98-0.28-2.94-0.51v-2.81c1.03,0.29,2.06,0.52,3.08,0.67
				s2.03,0.23,3.04,0.23c1.46,0,2.55-0.2,3.25-0.6s1.05-0.97,1.05-1.71c0-0.32-0.06-0.6-0.17-0.85s-0.31-0.49-0.61-0.72
				s-0.75-0.47-1.36-0.71s-1.46-0.53-2.52-0.84c-0.8-0.23-1.53-0.5-2.21-0.8s-1.26-0.65-1.75-1.06s-0.88-0.89-1.16-1.44
				s-0.42-1.2-0.42-1.95c0-0.49,0.11-1.03,0.34-1.62s0.62-1.13,1.17-1.63s1.29-0.92,2.23-1.26s2.11-0.5,3.52-0.5
				c0.69,0,1.46,0.04,2.3,0.11s1.72,0.21,2.64,0.4v2.72c-0.96-0.23-1.87-0.41-2.73-0.52s-1.61-0.17-2.24-0.17
				c-0.76,0-1.4,0.06-1.92,0.18s-0.94,0.28-1.27,0.48s-0.55,0.45-0.69,0.72s-0.21,0.57-0.21,0.89s0.06,0.6,0.18,0.86
				s0.35,0.51,0.69,0.75s0.8,0.48,1.4,0.72s1.38,0.5,2.34,0.78c1.04,0.3,1.92,0.62,2.64,0.96s1.29,0.71,1.74,1.12
				s0.76,0.87,0.96,1.39S257.91,516.8,257.91,517.46z"/>
			<path d="M277.91,497.44l-12.06,28.62h-2.92l12.06-28.62H277.91z"/>
			<path d="M289.53,499.95h-5.22v-2.51h8.31v22.29h5.26v2.55h-14.15v-2.55h5.8V499.95z"/>
			<path d="M309.32,507.16h-5.22v-2.53h8.31v15.1h5.26v2.55h-14.15v-2.55h5.8V507.16z M310.4,497.23c0.34,0,0.66,0.06,0.95,0.18
				s0.55,0.3,0.76,0.52s0.39,0.48,0.51,0.76s0.18,0.6,0.18,0.94c0,0.33-0.06,0.64-0.18,0.93s-0.29,0.55-0.51,0.77
				s-0.47,0.4-0.76,0.52s-0.61,0.18-0.95,0.18s-0.66-0.06-0.95-0.18s-0.55-0.3-0.76-0.52s-0.39-0.48-0.51-0.77s-0.18-0.6-0.18-0.93
				c0-0.34,0.06-0.65,0.18-0.94s0.29-0.54,0.51-0.76s0.47-0.4,0.76-0.52S310.06,497.23,310.4,497.23z"/>
			<path d="M338.19,513.14c0,1.46-0.2,2.77-0.61,3.93s-0.98,2.13-1.72,2.94s-1.65,1.42-2.72,1.85s-2.27,0.64-3.6,0.64
				c-1.04,0-2.11-0.1-3.2-0.3s-2.17-0.52-3.23-0.95v-23.8h3.06v6.84l-0.14,3.27c0.88-1.18,1.82-2.02,2.82-2.5s2.08-0.73,3.23-0.73
				c1.01,0,1.89,0.21,2.65,0.63s1.4,1.02,1.92,1.78s0.9,1.69,1.16,2.78S338.19,511.8,338.19,513.14z M335.06,513.28
				c0-0.93-0.07-1.78-0.2-2.55s-0.35-1.44-0.64-1.99s-0.67-0.98-1.13-1.29s-1-0.47-1.63-0.47c-0.39,0-0.78,0.06-1.18,0.18
				s-0.81,0.33-1.24,0.62s-0.88,0.67-1.35,1.14s-0.98,1.06-1.52,1.77v8.56c0.6,0.23,1.21,0.42,1.83,0.55s1.21,0.2,1.78,0.2
				c0.7,0,1.37-0.11,2.01-0.33s1.2-0.59,1.69-1.12s0.87-1.21,1.16-2.07S335.06,514.55,335.06,513.28z"/>
			<path d="M343.62,504.63h2.79l0.09,3.25c1.04-1.25,2.07-2.16,3.08-2.72s2.04-0.84,3.07-0.84c1.83,0,3.21,0.59,4.16,1.78
				s1.38,2.94,1.31,5.27h-3.09c0.04-1.55-0.19-2.67-0.68-3.37s-1.2-1.05-2.14-1.05c-0.41,0-0.82,0.07-1.24,0.22s-0.84,0.38-1.28,0.7
				s-0.91,0.74-1.4,1.24s-1.02,1.11-1.58,1.83v11.34h-3.09V504.63z"/>
			<path d="M374.03,522.28l-0.07-2.37c-0.96,0.95-1.94,1.63-2.93,2.06s-2.03,0.63-3.12,0.63c-1.01,0-1.87-0.13-2.58-0.39
				s-1.3-0.61-1.77-1.06s-0.8-0.98-1.02-1.59s-0.33-1.27-0.33-1.99c0-1.77,0.66-3.16,1.98-4.16s3.27-1.5,5.84-1.5h3.66v-1.55
				c0-1.04-0.33-1.88-1-2.5s-1.69-0.94-3.06-0.94c-1,0-1.98,0.11-2.94,0.33s-1.97,0.54-3,0.95v-2.76c0.39-0.14,0.82-0.28,1.29-0.41
				s0.98-0.25,1.5-0.36s1.08-0.19,1.65-0.25s1.15-0.1,1.74-0.1c1.07,0,2.03,0.12,2.88,0.35s1.58,0.59,2.17,1.07s1.05,1.08,1.36,1.81
				s0.47,1.58,0.47,2.57v12.16H374.03z M373.69,514.24h-3.88c-0.76,0-1.42,0.08-1.97,0.23s-1,0.37-1.35,0.65s-0.61,0.62-0.78,1.01
				s-0.25,0.83-0.25,1.33c0,0.34,0.05,0.67,0.16,0.98s0.28,0.59,0.51,0.83s0.54,0.43,0.91,0.57s0.83,0.21,1.37,0.21
				c0.7,0,1.51-0.21,2.42-0.64s1.87-1.1,2.87-2.03V514.24z"/>
			<path d="M383.2,504.63H386l0.09,3.25c1.04-1.25,2.07-2.16,3.08-2.72s2.04-0.84,3.07-0.84c1.83,0,3.21,0.59,4.16,1.78
				s1.38,2.94,1.31,5.27h-3.09c0.04-1.55-0.19-2.67-0.68-3.37s-1.2-1.05-2.14-1.05c-0.41,0-0.82,0.07-1.24,0.22s-0.84,0.38-1.28,0.7
				s-0.91,0.74-1.4,1.24s-1.02,1.11-1.58,1.83v11.34h-3.09V504.63z"/>
			<path d="M417.97,504.63l-6.01,15.79c-0.62,1.61-1.26,2.99-1.92,4.15s-1.39,2.11-2.17,2.86s-1.65,1.29-2.58,1.64
				s-1.99,0.53-3.15,0.53c-0.3,0-0.58-0.01-0.83-0.02s-0.52-0.03-0.81-0.05v-2.78c0.26,0.04,0.54,0.07,0.84,0.1s0.63,0.04,0.97,0.04
				c0.56,0,1.09-0.08,1.57-0.25s0.95-0.43,1.38-0.8s0.85-0.85,1.25-1.43s0.79-1.29,1.16-2.13l-7.05-17.65h3.48l4.46,11.67l0.9,2.74
				l1.02-2.81l4.13-11.6H417.97z"/>
			<path d="M435.46,505.24c0,1.9-0.53,3.34-1.58,4.32s-2.58,1.53-4.59,1.66l-0.14,4.32h-2.62l-0.23-6.73h2.06
				c0.71,0,1.31-0.08,1.79-0.23s0.87-0.37,1.16-0.65s0.5-0.62,0.63-1.03s0.19-0.86,0.19-1.36c0-0.86-0.18-1.62-0.53-2.29
				s-0.84-1.23-1.48-1.69s-1.39-0.8-2.26-1.04s-1.83-0.35-2.86-0.35h-0.44v-2.74h0.47c1.18,0,2.26,0.11,3.24,0.33
				s1.85,0.52,2.62,0.91s1.44,0.83,2,1.34s1.04,1.06,1.42,1.63s0.66,1.17,0.84,1.78S435.46,504.66,435.46,505.24z M427.82,517.95
				c0.33,0,0.63,0.06,0.91,0.18s0.52,0.29,0.73,0.5s0.37,0.46,0.48,0.75s0.18,0.59,0.18,0.91s-0.06,0.62-0.18,0.9
				s-0.28,0.52-0.48,0.73s-0.45,0.37-0.73,0.49s-0.59,0.18-0.91,0.18c-0.32,0-0.62-0.06-0.9-0.18s-0.53-0.29-0.74-0.49
				s-0.38-0.45-0.49-0.73s-0.18-0.58-0.18-0.9s0.06-0.62,0.18-0.91s0.28-0.54,0.49-0.75s0.46-0.38,0.74-0.5
				S427.5,517.95,427.82,517.95z"/>
			<path d="M447.87,507.16h-5.22v-2.53h8.31v15.1h5.26v2.55h-14.15v-2.55h5.8V507.16z M448.95,497.23c0.34,0,0.66,0.06,0.95,0.18
				s0.55,0.3,0.76,0.52s0.39,0.48,0.51,0.76s0.18,0.6,0.18,0.94c0,0.33-0.06,0.64-0.18,0.93s-0.29,0.55-0.51,0.77
				s-0.47,0.4-0.76,0.52s-0.61,0.18-0.95,0.18s-0.66-0.06-0.95-0.18s-0.55-0.3-0.76-0.52s-0.39-0.48-0.51-0.77s-0.18-0.6-0.18-0.93
				c0-0.34,0.06-0.65,0.18-0.94s0.29-0.54,0.51-0.76s0.47-0.4,0.76-0.52S448.61,497.23,448.95,497.23z"/>
			<path d="M460.76,513.82c0-1.5,0.21-2.83,0.62-4s0.99-2.15,1.75-2.95s1.66-1.41,2.72-1.83s2.24-0.62,3.54-0.62
				c0.56,0,1.12,0.04,1.66,0.11s1.08,0.18,1.61,0.33v-7.42h3.08v24.84h-2.74l-0.11-3.34c-0.86,1.24-1.78,2.16-2.78,2.76
				s-2.07,0.9-3.23,0.9c-1.01,0-1.9-0.21-2.66-0.63s-1.41-1.02-1.92-1.78s-0.89-1.69-1.15-2.77S460.76,515.13,460.76,513.82z
				 M463.89,513.63c0,2.13,0.31,3.72,0.94,4.77s1.51,1.57,2.66,1.57c0.77,0,1.59-0.35,2.45-1.04s1.77-1.72,2.72-3.08v-8.19
				c-0.5-0.23-1.06-0.41-1.67-0.54s-1.21-0.18-1.81-0.18c-1.66,0-2.96,0.54-3.89,1.62S463.89,511.33,463.89,513.63z"/>
			<path d="M496.09,510.92h-15.12v-2.58h15.12V510.92z M496.09,517.04h-15.12v-2.58h15.12V517.04z"/>
			<path d="M516.53,515.83h-3.92l-0.65,6.45h-2.6l0.65-6.45h-4.48l-0.65,6.45h-2.6l0.65-6.45h-3.74v-2.29h3.97l0.63-6.15h-3.71
				v-2.29h3.94l0.6-5.8h2.57l-0.58,5.8h4.5l0.6-5.8h2.6l-0.62,5.8h3.78v2.29h-4.01l-0.62,6.15h3.69V515.83z M510.26,513.54
				l0.62-6.15h-4.5l-0.62,6.15H510.26z"/>
			<path d="M527.98,516.74c0.4,0,0.78,0.08,1.13,0.23s0.67,0.36,0.93,0.63s0.47,0.58,0.62,0.94s0.23,0.74,0.23,1.15
				c0,0.4-0.08,0.77-0.23,1.13s-0.36,0.66-0.62,0.92s-0.57,0.47-0.93,0.62s-0.74,0.23-1.13,0.23c-0.41,0-0.79-0.08-1.14-0.23
				s-0.66-0.36-0.92-0.62s-0.47-0.57-0.62-0.92s-0.23-0.73-0.23-1.13c0-0.41,0.08-0.79,0.23-1.15s0.36-0.67,0.62-0.94
				s0.57-0.48,0.92-0.63S527.57,516.74,527.98,516.74z"/>
			<path d="M555.91,513.14c0,1.57-0.22,2.94-0.66,4.11s-1.05,2.14-1.82,2.92s-1.69,1.35-2.74,1.74s-2.2,0.58-3.43,0.58
				c-0.56,0-1.12-0.03-1.68-0.09s-1.12-0.16-1.7-0.3v7.38h-3.06v-24.86h2.72l0.19,2.95c0.88-1.21,1.82-2.05,2.81-2.54
				s2.07-0.73,3.23-0.73c1.01,0,1.89,0.21,2.65,0.63s1.4,1.02,1.92,1.78s0.9,1.69,1.16,2.78S555.91,511.8,555.91,513.14z
				 M552.78,513.28c0-0.93-0.07-1.78-0.2-2.55s-0.35-1.44-0.64-1.99s-0.67-0.98-1.13-1.29s-1-0.47-1.63-0.47
				c-0.39,0-0.78,0.06-1.18,0.18s-0.81,0.33-1.24,0.62s-0.88,0.67-1.35,1.14s-0.98,1.06-1.52,1.77v8.56
				c0.56,0.23,1.15,0.42,1.78,0.55s1.23,0.2,1.83,0.2c1.65,0,2.95-0.56,3.88-1.68S552.78,515.53,552.78,513.28z"/>
			<path d="M574.8,522.28h-3.06v-11.27c0-1.36-0.25-2.38-0.76-3.05s-1.24-1.01-2.19-1.01c-0.41,0-0.79,0.06-1.15,0.17
				s-0.73,0.3-1.12,0.58s-0.81,0.65-1.27,1.12s-0.98,1.05-1.58,1.76v11.71h-3.06v-24.84h3.06v7.19l-0.11,2.78
				c0.48-0.57,0.95-1.06,1.42-1.45s0.93-0.71,1.39-0.96s0.93-0.42,1.42-0.53s0.98-0.16,1.49-0.16c1.76,0,3.12,0.54,4.08,1.61
				s1.44,2.69,1.44,4.84V522.28z"/>
			<path d="M595.49,513.14c0,1.57-0.22,2.94-0.66,4.11s-1.05,2.14-1.82,2.92s-1.69,1.35-2.74,1.74s-2.2,0.58-3.43,0.58
				c-0.56,0-1.12-0.03-1.68-0.09s-1.12-0.16-1.7-0.3v7.38h-3.06v-24.86h2.72l0.19,2.95c0.88-1.21,1.82-2.05,2.81-2.54
				s2.07-0.73,3.23-0.73c1.01,0,1.89,0.21,2.65,0.63s1.4,1.02,1.92,1.78s0.9,1.69,1.16,2.78S595.49,511.8,595.49,513.14z
				 M592.37,513.28c0-0.93-0.07-1.78-0.2-2.55s-0.35-1.44-0.64-1.99s-0.67-0.98-1.13-1.29s-1-0.47-1.63-0.47
				c-0.39,0-0.78,0.06-1.18,0.18s-0.81,0.33-1.24,0.62s-0.88,0.67-1.35,1.14s-0.98,1.06-1.52,1.77v8.56
				c0.56,0.23,1.15,0.42,1.78,0.55s1.23,0.2,1.83,0.2c1.65,0,2.95-0.56,3.88-1.68S592.37,515.53,592.37,513.28z"/>
		</g>
		<rect x="91.5" y="469" class="st2" width="550" height="90"/>
		<rect x="688.5" y="469" class="st2" width="550" height="90"/>
		<g>
			<path d="M765.36,518.14c0.4,0,0.78,0.08,1.13,0.23s0.67,0.36,0.93,0.63s0.47,0.58,0.62,0.94s0.23,0.74,0.23,1.15
				c0,0.4-0.08,0.77-0.23,1.13s-0.36,0.66-0.62,0.92s-0.57,0.47-0.93,0.62s-0.74,0.23-1.13,0.23c-0.41,0-0.79-0.08-1.14-0.23
				s-0.66-0.36-0.92-0.62s-0.47-0.57-0.62-0.92s-0.23-0.73-0.23-1.13c0-0.41,0.08-0.79,0.23-1.15s0.36-0.67,0.62-0.94
				s0.57-0.48,0.92-0.63S764.95,518.14,765.36,518.14z"/>
			<path d="M792.4,498.84l-12.06,28.62h-2.92l12.06-28.62H792.4z"/>
			<path d="M796.35,506.03h3.48l4.32,11.67l0.93,2.85l0.97-2.92l4.29-11.6h3.36l-6.93,17.65h-3.52L796.35,506.03z"/>
			<path d="M823.81,508.56h-5.22v-2.53h8.31v15.1h5.26v2.55h-14.15v-2.55h5.8V508.56z M824.88,498.63c0.34,0,0.66,0.06,0.95,0.18
				s0.55,0.3,0.76,0.52s0.39,0.48,0.51,0.76s0.18,0.6,0.18,0.94c0,0.33-0.06,0.64-0.18,0.93s-0.29,0.55-0.51,0.77
				s-0.47,0.4-0.76,0.52s-0.61,0.18-0.95,0.18s-0.66-0.06-0.95-0.18s-0.55-0.3-0.76-0.52s-0.39-0.48-0.51-0.77s-0.18-0.6-0.18-0.93
				c0-0.34,0.06-0.65,0.18-0.94s0.29-0.54,0.51-0.76s0.47-0.4,0.76-0.52S824.54,498.63,824.88,498.63z"/>
			<path d="M852.5,513.92c0,0.43-0.01,0.8-0.02,1.09s-0.03,0.57-0.05,0.83h-12.39c0,1.8,0.5,3.19,1.51,4.16s2.46,1.45,4.36,1.45
				c0.52,0,1.03-0.02,1.55-0.06s1.01-0.1,1.49-0.17s0.94-0.15,1.38-0.24s0.85-0.18,1.22-0.29v2.51c-0.83,0.23-1.77,0.42-2.82,0.57
				s-2.14,0.22-3.26,0.22c-1.51,0-2.81-0.21-3.9-0.62s-1.98-1-2.68-1.78s-1.21-1.73-1.55-2.87s-0.5-2.41-0.5-3.84
				c0-1.24,0.18-2.42,0.54-3.52s0.88-2.08,1.56-2.92s1.53-1.5,2.52-2s2.13-0.74,3.39-0.74c1.23,0,2.32,0.19,3.27,0.58
				s1.75,0.93,2.4,1.64s1.14,1.57,1.48,2.58S852.5,512.67,852.5,513.92z M849.32,513.49c0.04-0.79-0.04-1.5-0.23-2.15
				s-0.48-1.21-0.87-1.68s-0.88-0.83-1.47-1.1s-1.27-0.4-2.04-0.4c-0.67,0-1.28,0.13-1.83,0.39s-1.03,0.62-1.42,1.09
				s-0.72,1.03-0.97,1.69s-0.4,1.38-0.46,2.16H849.32z"/>
			<path d="M873.73,506.03l-2.57,17.65h-3.71l-2.55-7.38l-0.51-1.79l-0.58,1.9l-2.44,7.28h-3.6l-2.55-17.65h2.99l1.48,11.99
				l0.32,2.67l0.76-2.34l2.57-7.93h2.2l2.76,7.82l0.79,2.34l0.26-2.48l1.37-12.08H873.73z"/>
			<path d="M891.15,518.86c0,0.62-0.11,1.18-0.32,1.67s-0.5,0.93-0.86,1.31s-0.79,0.71-1.27,0.98s-0.99,0.49-1.54,0.67
				s-1.1,0.3-1.68,0.39s-1.14,0.12-1.69,0.12c-1.2,0-2.29-0.05-3.3-0.16s-1.98-0.28-2.94-0.51v-2.81c1.03,0.29,2.06,0.52,3.08,0.67
				s2.03,0.23,3.04,0.23c1.46,0,2.55-0.2,3.25-0.6s1.05-0.97,1.05-1.71c0-0.32-0.06-0.6-0.17-0.85s-0.31-0.49-0.61-0.72
				s-0.75-0.47-1.36-0.71s-1.46-0.53-2.52-0.84c-0.8-0.23-1.53-0.5-2.21-0.8s-1.26-0.65-1.75-1.06s-0.88-0.89-1.16-1.44
				s-0.42-1.2-0.42-1.95c0-0.49,0.11-1.03,0.34-1.62s0.62-1.13,1.17-1.63s1.29-0.92,2.23-1.26s2.11-0.5,3.52-0.5
				c0.69,0,1.46,0.04,2.3,0.11s1.72,0.21,2.64,0.4v2.72c-0.96-0.23-1.87-0.41-2.73-0.52s-1.61-0.17-2.24-0.17
				c-0.76,0-1.4,0.06-1.92,0.18s-0.94,0.28-1.27,0.48s-0.55,0.45-0.69,0.72s-0.21,0.57-0.21,0.89s0.06,0.6,0.18,0.86
				s0.35,0.51,0.69,0.75s0.8,0.48,1.4,0.72s1.38,0.5,2.34,0.78c1.04,0.3,1.92,0.62,2.64,0.96s1.29,0.71,1.74,1.12
				s0.76,0.87,0.96,1.39S891.15,518.21,891.15,518.86z"/>
			<path d="M911.16,498.84l-12.06,28.62h-2.92l12.06-28.62H911.16z"/>
			<path d="M930.98,523.43c-0.69,0.18-1.41,0.3-2.14,0.38s-1.49,0.11-2.25,0.11c-2.21,0-3.87-0.5-4.96-1.5s-1.63-2.54-1.63-4.61
				v-9.21h-4.94v-2.57H920v-4.85l3.06-0.79v5.64h7.93v2.57h-7.93v8.96c0,1.27,0.34,2.21,1.01,2.84s1.67,0.94,2.98,0.94
				c0.56,0,1.18-0.04,1.85-0.13s1.37-0.23,2.09-0.41V523.43z"/>
			<path d="M951.92,514.72c0,1.37-0.19,2.63-0.58,3.77s-0.94,2.12-1.67,2.94s-1.61,1.45-2.65,1.9s-2.23,0.68-3.55,0.68
				c-1.27,0-2.4-0.2-3.4-0.59s-1.85-0.97-2.55-1.73s-1.23-1.71-1.6-2.83s-0.55-2.42-0.55-3.88c0-1.37,0.19-2.62,0.58-3.75
				s0.94-2.1,1.67-2.92s1.61-1.45,2.65-1.9s2.23-0.68,3.55-0.68c1.27,0,2.4,0.2,3.4,0.59s1.85,0.97,2.55,1.72s1.23,1.7,1.6,2.82
				S951.92,513.26,951.92,514.72z M948.79,514.86c0-1.09-0.12-2.04-0.36-2.86s-0.58-1.49-1.03-2.04s-0.99-0.96-1.63-1.23
				s-1.35-0.41-2.14-0.41c-0.91,0-1.7,0.18-2.35,0.54s-1.18,0.83-1.6,1.43s-0.72,1.29-0.91,2.08s-0.29,1.62-0.29,2.49
				c0,1.09,0.12,2.04,0.36,2.87s0.58,1.5,1.03,2.05s0.98,0.96,1.62,1.23s1.35,0.41,2.14,0.41c0.91,0,1.7-0.18,2.35-0.54
				s1.18-0.83,1.6-1.43s0.72-1.29,0.91-2.08S948.79,515.74,948.79,514.86z"/>
			<path d="M955.45,515.23c0-1.5,0.21-2.83,0.62-4s0.99-2.15,1.75-2.95s1.66-1.41,2.72-1.83s2.24-0.62,3.54-0.62
				c0.56,0,1.12,0.04,1.66,0.11s1.08,0.18,1.61,0.33v-7.42h3.08v24.84h-2.74l-0.11-3.34c-0.86,1.24-1.78,2.16-2.78,2.76
				s-2.07,0.9-3.23,0.9c-1.01,0-1.9-0.21-2.66-0.63s-1.41-1.02-1.92-1.78s-0.89-1.69-1.15-2.77S955.45,516.54,955.45,515.23z
				 M958.58,515.03c0,2.13,0.31,3.72,0.94,4.77s1.51,1.57,2.66,1.57c0.77,0,1.59-0.35,2.45-1.04s1.77-1.72,2.72-3.08v-8.19
				c-0.5-0.23-1.06-0.41-1.67-0.54s-1.21-0.18-1.81-0.18c-1.66,0-2.96,0.54-3.89,1.62S958.58,512.74,958.58,515.03z"/>
			<path d="M991.5,514.72c0,1.37-0.19,2.63-0.58,3.77s-0.94,2.12-1.67,2.94s-1.61,1.45-2.65,1.9s-2.23,0.68-3.55,0.68
				c-1.27,0-2.4-0.2-3.4-0.59s-1.85-0.97-2.55-1.73s-1.23-1.71-1.6-2.83s-0.55-2.42-0.55-3.88c0-1.37,0.19-2.62,0.58-3.75
				s0.94-2.1,1.67-2.92s1.61-1.45,2.65-1.9s2.23-0.68,3.55-0.68c1.27,0,2.4,0.2,3.4,0.59s1.85,0.97,2.55,1.72s1.23,1.7,1.6,2.82
				S991.5,513.26,991.5,514.72z M988.38,514.86c0-1.09-0.12-2.04-0.36-2.86s-0.58-1.49-1.03-2.04s-0.99-0.96-1.63-1.23
				s-1.35-0.41-2.14-0.41c-0.91,0-1.7,0.18-2.35,0.54s-1.18,0.83-1.6,1.43s-0.72,1.29-0.91,2.08s-0.29,1.62-0.29,2.49
				c0,1.09,0.12,2.04,0.36,2.87s0.58,1.5,1.03,2.05s0.98,0.96,1.62,1.23s1.35,0.41,2.14,0.41c0.91,0,1.7-0.18,2.35-0.54
				s1.18-0.83,1.6-1.43s0.72-1.29,0.91-2.08S988.38,515.74,988.38,514.86z"/>
			<path d="M1009.33,506.65c0,1.9-0.53,3.34-1.58,4.32s-2.58,1.53-4.59,1.66l-0.14,4.32h-2.62l-0.23-6.73h2.06
				c0.71,0,1.31-0.08,1.79-0.23s0.87-0.37,1.16-0.65s0.5-0.62,0.63-1.03s0.19-0.86,0.19-1.36c0-0.86-0.18-1.62-0.53-2.29
				s-0.84-1.23-1.48-1.69s-1.39-0.8-2.26-1.04s-1.83-0.35-2.86-0.35h-0.44v-2.74h0.47c1.18,0,2.26,0.11,3.24,0.33
				s1.85,0.52,2.62,0.91s1.44,0.83,2,1.34s1.04,1.06,1.42,1.63s0.66,1.17,0.84,1.78S1009.33,506.06,1009.33,506.65z M1001.68,519.36
				c0.33,0,0.63,0.06,0.91,0.18s0.52,0.29,0.73,0.5s0.37,0.46,0.48,0.75s0.18,0.59,0.18,0.91s-0.06,0.62-0.18,0.9
				s-0.28,0.52-0.48,0.73s-0.45,0.37-0.73,0.49s-0.59,0.18-0.91,0.18c-0.32,0-0.62-0.06-0.9-0.18s-0.53-0.29-0.74-0.49
				s-0.38-0.45-0.49-0.73s-0.18-0.58-0.18-0.9s0.06-0.62,0.18-0.91s0.28-0.54,0.49-0.75s0.46-0.38,0.74-0.5
				S1001.37,519.36,1001.68,519.36z"/>
			<path d="M1021.74,508.56h-5.22v-2.53h8.31v15.1h5.26v2.55h-14.15v-2.55h5.8V508.56z M1022.81,498.63c0.34,0,0.66,0.06,0.95,0.18
				s0.55,0.3,0.76,0.52s0.39,0.48,0.51,0.76s0.18,0.6,0.18,0.94c0,0.33-0.06,0.64-0.18,0.93s-0.29,0.55-0.51,0.77
				s-0.47,0.4-0.76,0.52s-0.61,0.18-0.95,0.18s-0.66-0.06-0.95-0.18s-0.55-0.3-0.76-0.52s-0.39-0.48-0.51-0.77s-0.18-0.6-0.18-0.93
				c0-0.34,0.06-0.65,0.18-0.94s0.29-0.54,0.51-0.76s0.47-0.4,0.76-0.52S1022.47,498.63,1022.81,498.63z"/>
			<path d="M1034.62,515.23c0-1.5,0.21-2.83,0.62-4s0.99-2.15,1.75-2.95s1.66-1.41,2.72-1.83s2.24-0.62,3.54-0.62
				c0.56,0,1.12,0.04,1.66,0.11s1.08,0.18,1.61,0.33v-7.42h3.08v24.84h-2.74l-0.11-3.34c-0.86,1.24-1.78,2.16-2.78,2.76
				s-2.07,0.9-3.23,0.9c-1.01,0-1.9-0.21-2.66-0.63s-1.41-1.02-1.92-1.78s-0.89-1.69-1.15-2.77S1034.62,516.54,1034.62,515.23z
				 M1037.75,515.03c0,2.13,0.31,3.72,0.94,4.77s1.51,1.57,2.66,1.57c0.77,0,1.59-0.35,2.45-1.04s1.77-1.72,2.72-3.08v-8.19
				c-0.5-0.23-1.06-0.41-1.67-0.54s-1.21-0.18-1.81-0.18c-1.66,0-2.96,0.54-3.89,1.62S1037.75,512.74,1037.75,515.03z"/>
			<path d="M1069.96,512.33h-15.12v-2.58h15.12V512.33z M1069.96,518.44h-15.12v-2.58h15.12V518.44z"/>
			<path d="M1090.4,517.23h-3.92l-0.65,6.45h-2.6l0.65-6.45h-4.48l-0.65,6.45h-2.6l0.65-6.45h-3.74v-2.29h3.97l0.63-6.15h-3.71
				v-2.29h3.94l0.6-5.8h2.57l-0.58,5.8h4.5l0.6-5.8h2.6l-0.62,5.8h3.78v2.29h-4.01l-0.62,6.15h3.69V517.23z M1084.12,514.94
				l0.62-6.15h-4.5l-0.62,6.15H1084.12z"/>
			<path d="M1101.84,518.14c0.4,0,0.78,0.08,1.13,0.23s0.67,0.36,0.93,0.63s0.47,0.58,0.62,0.94s0.23,0.74,0.23,1.15
				c0,0.4-0.08,0.77-0.23,1.13s-0.36,0.66-0.62,0.92s-0.57,0.47-0.93,0.62s-0.74,0.23-1.13,0.23c-0.41,0-0.79-0.08-1.14-0.23
				s-0.66-0.36-0.92-0.62s-0.47-0.57-0.62-0.92s-0.23-0.73-0.23-1.13c0-0.41,0.08-0.79,0.23-1.15s0.36-0.67,0.62-0.94
				s0.57-0.48,0.92-0.63S1101.43,518.14,1101.84,518.14z"/>
			<path d="M1129.77,514.54c0,1.57-0.22,2.94-0.66,4.11s-1.05,2.14-1.82,2.92s-1.69,1.35-2.74,1.74s-2.2,0.58-3.43,0.58
				c-0.56,0-1.12-0.03-1.68-0.09s-1.12-0.16-1.7-0.3v7.38h-3.06v-24.86h2.72l0.19,2.95c0.88-1.21,1.82-2.05,2.81-2.54
				s2.07-0.73,3.23-0.73c1.01,0,1.89,0.21,2.65,0.63s1.4,1.02,1.92,1.78s0.9,1.69,1.16,2.78S1129.77,513.2,1129.77,514.54z
				 M1126.65,514.68c0-0.93-0.07-1.78-0.2-2.55s-0.35-1.44-0.64-1.99s-0.67-0.98-1.13-1.29s-1-0.47-1.63-0.47
				c-0.39,0-0.78,0.06-1.18,0.18s-0.81,0.33-1.24,0.62s-0.88,0.67-1.35,1.14s-0.98,1.06-1.52,1.77v8.56
				c0.56,0.23,1.15,0.42,1.78,0.55s1.23,0.2,1.83,0.2c1.65,0,2.95-0.56,3.88-1.68S1126.65,516.93,1126.65,514.68z"/>
			<path d="M1148.67,523.68h-3.06v-11.27c0-1.36-0.25-2.38-0.76-3.05s-1.24-1.01-2.19-1.01c-0.41,0-0.79,0.06-1.15,0.17
				s-0.73,0.3-1.12,0.58s-0.81,0.65-1.27,1.12s-0.98,1.05-1.58,1.76v11.71h-3.06v-24.84h3.06v7.19l-0.11,2.78
				c0.48-0.57,0.95-1.06,1.42-1.45s0.93-0.71,1.39-0.96s0.93-0.42,1.42-0.53s0.98-0.16,1.49-0.16c1.76,0,3.12,0.54,4.08,1.61
				s1.44,2.69,1.44,4.84V523.68z"/>
			<path d="M1169.36,514.54c0,1.57-0.22,2.94-0.66,4.11s-1.05,2.14-1.82,2.92s-1.69,1.35-2.74,1.74s-2.2,0.58-3.43,0.58
				c-0.56,0-1.12-0.03-1.68-0.09s-1.12-0.16-1.7-0.3v7.38h-3.06v-24.86h2.72l0.19,2.95c0.88-1.21,1.82-2.05,2.81-2.54
				s2.07-0.73,3.23-0.73c1.01,0,1.89,0.21,2.65,0.63s1.4,1.02,1.92,1.78s0.9,1.69,1.16,2.78S1169.36,513.2,1169.36,514.54z
				 M1166.23,514.68c0-0.93-0.07-1.78-0.2-2.55s-0.35-1.44-0.64-1.99s-0.67-0.98-1.13-1.29s-1-0.47-1.63-0.47
				c-0.39,0-0.78,0.06-1.18,0.18s-0.81,0.33-1.24,0.62s-0.88,0.67-1.35,1.14s-0.98,1.06-1.52,1.77v8.56
				c0.56,0.23,1.15,0.42,1.78,0.55s1.23,0.2,1.83,0.2c1.65,0,2.95-0.56,3.88-1.68S1166.23,516.93,1166.23,514.68z"/>
		</g>
	</g>
</g>
</svg>
